<svg xmlns="http://www.w3.org/2000/svg" width="900" height="720" viewBox="0 0 900 720"><rect x="0" y="0" width="900" height="720" rx="0" fill="#323232"/><filter id="shadow" x="-10%" y="-10%" width="120%" height="130%"><feDropShadow dx="0" dy="12" stdDeviation="18" flood-color="#000000" flood-opacity="0.13"/></filter><rect x="40" y="24" width="820" height="660" rx="18" fill="#1E1E1E" stroke="#3A3A3C" filter="url(#shadow)"/><text x="72" y="72" fill="#F2F2F4" font-family="-apple-system, BlinkMacSystemFont, Segoe UI, sans-serif" font-size="26" font-weight="700" text-anchor="start" >Choose recognition engine</text><text x="72" y="96" fill="#A8A8AD" font-family="-apple-system, BlinkMacSystemFont, Segoe UI, sans-serif" font-size="14" font-weight="400" text-anchor="start" >Advanced selection for exact local, cloud, and experimental recognizers.</text><rect x="704" y="60" width="112" height="32" rx="8" fill="#242424" stroke="#3A3A3C" stroke-width="1"/><text x="760.0" y="81.0" fill="#F2F2F4" font-family="-apple-system, BlinkMacSystemFont, Segoe UI, sans-serif" font-size="13" font-weight="600" text-anchor="middle" >Done</text><rect x="72" y="124" width="326" height="38" rx="10" fill="#272729" stroke="#3A3A3C" stroke-width="1"/><circle cx="94" cy="142" r="5" fill="none" stroke="#85858C" stroke-width="1.5"/><line x1="98" y1="146" x2="103" y2="151" stroke="#85858C" stroke-width="1.5" stroke-linecap="round"/><text x="114" y="148" fill="#85858C" font-family="-apple-system, BlinkMacSystemFont, Segoe UI, sans-serif" font-size="13" font-weight="400" text-anchor="start" >Search engines</text><rect x="72" y="170" width="54" height="30" rx="15" fill="#F2F2F4"/><text x="99.0" y="190" fill="#1E1E1E" font-family="-apple-system, BlinkMacSystemFont, Segoe UI, sans-serif" font-size="12" font-weight="600" text-anchor="middle" >All</text><rect x="134" y="170" width="66" height="30" rx="15" fill="#1E1E1E" stroke="#3A3A3C" stroke-width="1"/><text x="167.0" y="190" fill="#A8A8AD" font-family="-apple-system, BlinkMacSystemFont, Segoe UI, sans-serif" font-size="12" font-weight="600" text-anchor="middle" >Local</text><rect x="208" y="170" width="68" height="30" rx="15" fill="#1E1E1E" stroke="#3A3A3C" stroke-width="1"/><text x="242.0" y="190" fill="#A8A8AD" font-family="-apple-system, BlinkMacSystemFont, Segoe UI, sans-serif" font-size="12" font-weight="600" text-anchor="middle" >Cloud</text><text x="72" y="212" fill="#85858C" font-family="-apple-system, BlinkMacSystemFont, Segoe UI, sans-serif" font-size="11" font-weight="700" text-anchor="start" >Local</text><rect x="72" y="222" width="326" height="54" rx="9" fill="#343436" stroke="#515154" stroke-width="1"/><circle cx="94" cy="244" r="13" fill="#1E1E1E" stroke="#3A3A3C"/><rect x="82" y="235" width="25" height="18" rx="3" fill="none" stroke="#A8A8AD" stroke-width="1.5"/><line x1="90" y1="257" x2="99" y2="257" stroke="#A8A8AD" stroke-width="1.5"/><line x1="94.5" y1="253" x2="94.5" y2="257" stroke="#A8A8AD" stroke-width="1.5"/><text x="116" y="243" fill="#F2F2F4" font-family="-apple-system, BlinkMacSystemFont, Segoe UI, sans-serif" font-size="13" font-weight="600" text-anchor="start" >Qwen3-ASR 0.6B f32</text><text x="116" y="261" fill="#A8A8AD" font-family="-apple-system, BlinkMacSystemFont, Segoe UI, sans-serif" font-size="11" font-weight="400" text-anchor="start" >Recommended mixed Chinese/English recognition.</text><circle cx="376" cy="244" r="9" fill="#32D74B" fill-opacity="0.18"/><path d="M372 244 L375 247 L381 240" fill="none" stroke="#32D74B" stroke-width="2" stroke-linecap="round" stroke-linejoin="round"/><rect x="72" y="280" width="326" height="54" rx="9" fill="transparent"/><circle cx="94" cy="302" r="13" fill="#272729" stroke="#3A3A3C"/><rect x="82" y="293" width="25" height="18" rx="3" fill="none" stroke="#A8A8AD" stroke-width="1.5"/><line x1="90" y1="315" x2="99" y2="315" stroke="#A8A8AD" stroke-width="1.5"/><line x1="94.5" y1="311" x2="94.5" y2="315" stroke="#A8A8AD" stroke-width="1.5"/><text x="116" y="301" fill="#F2F2F4" font-family="-apple-system, BlinkMacSystemFont, Segoe UI, sans-serif" font-size="13" font-weight="600" text-anchor="start" >Qwen3-ASR 0.6B int8</text><text x="116" y="319" fill="#A8A8AD" font-family="-apple-system, BlinkMacSystemFont, Segoe UI, sans-serif" font-size="11" font-weight="400" text-anchor="start" >Same coverage with a smaller memory footprint.</text><rect x="72" y="338" width="326" height="54" rx="9" fill="transparent"/><circle cx="94" cy="360" r="13" fill="#272729" stroke="#3A3A3C"/><rect x="82" y="351" width="25" height="18" rx="3" fill="none" stroke="#A8A8AD" stroke-width="1.5"/><line x1="90" y1="373" x2="99" y2="373" stroke="#A8A8AD" stroke-width="1.5"/><line x1="94.5" y1="369" x2="94.5" y2="373" stroke="#A8A8AD" stroke-width="1.5"/><text x="116" y="359" fill="#F2F2F4" font-family="-apple-system, BlinkMacSystemFont, Segoe UI, sans-serif" font-size="13" font-weight="600" text-anchor="start" >Parakeet TDT 0.6B v3</text><text x="116" y="377" fill="#A8A8AD" font-family="-apple-system, BlinkMacSystemFont, Segoe UI, sans-serif" font-size="11" font-weight="400" text-anchor="start" >Fast local recognition for English and European languages.</text><text x="72" y="406" fill="#85858C" font-family="-apple-system, BlinkMacSystemFont, Segoe UI, sans-serif" font-size="11" font-weight="700" text-anchor="start" >Cloud</text><rect x="72" y="416" width="326" height="54" rx="9" fill="transparent"/><circle cx="94" cy="438" r="13" fill="#272729" stroke="#3A3A3C"/><path d="M91 445h18a7 7 0 0 0 0-14 10 10 0 0 0-19 3A6 6 0 0 0 91 445Z" fill="none" stroke="#A8A8AD" stroke-width="1.5" stroke-linejoin="round"/><text x="116" y="437" fill="#F2F2F4" font-family="-apple-system, BlinkMacSystemFont, Segoe UI, sans-serif" font-size="13" font-weight="600" text-anchor="start" >Groq Whisper Large V3 Turbo</text><text x="116" y="455" fill="#A8A8AD" font-family="-apple-system, BlinkMacSystemFont, Segoe UI, sans-serif" font-size="11" font-weight="400" text-anchor="start" >Fast cloud recognition. Good fallback for hard audio.</text><rect x="72" y="474" width="326" height="54" rx="9" fill="transparent"/><circle cx="94" cy="496" r="13" fill="#272729" stroke="#3A3A3C"/><path d="M91 503h18a7 7 0 0 0 0-14 10 10 0 0 0-19 3A6 6 0 0 0 91 503Z" fill="none" stroke="#A8A8AD" stroke-width="1.5" stroke-linejoin="round"/><text x="116" y="495" fill="#F2F2F4" font-family="-apple-system, BlinkMacSystemFont, Segoe UI, sans-serif" font-size="13" font-weight="600" text-anchor="start" >OpenAI GPT-4o Transcribe</text><text x="116" y="513" fill="#A8A8AD" font-family="-apple-system, BlinkMacSystemFont, Segoe UI, sans-serif" font-size="11" font-weight="400" text-anchor="start" >Cloud speech-to-text with optional language hint.</text><text x="72" y="542" fill="#85858C" font-family="-apple-system, BlinkMacSystemFont, Segoe UI, sans-serif" font-size="11" font-weight="700" text-anchor="start" >Experimental</text><rect x="72" y="552" width="326" height="54" rx="9" fill="transparent"/><circle cx="94" cy="574" r="13" fill="#272729" stroke="#3A3A3C"/><rect x="82" y="565" width="25" height="18" rx="3" fill="none" stroke="#A8A8AD" stroke-width="1.5"/><line x1="90" y1="587" x2="99" y2="587" stroke="#A8A8AD" stroke-width="1.5"/><line x1="94.5" y1="583" x2="94.5" y2="587" stroke="#A8A8AD" stroke-width="1.5"/><text x="116" y="573" fill="#F2F2F4" font-family="-apple-system, BlinkMacSystemFont, Segoe UI, sans-serif" font-size="13" font-weight="600" text-anchor="start" >WhisperKit large-v3 turbo</text><text x="116" y="591" fill="#A8A8AD" font-family="-apple-system, BlinkMacSystemFont, Segoe UI, sans-serif" font-size="11" font-weight="400" text-anchor="start" >Planned local fallback runtime. Not packaged yet.</text><line x1="424" y1="124" x2="424" y2="622" stroke="#363638" stroke-width="1"/><rect x="450" y="124" width="334" height="498" rx="12" fill="#272729" stroke="#3A3A3C" stroke-width="1"/><rect x="682" y="144" width="76" height="22" rx="11" fill="#32D74B" fill-opacity="0.12" stroke="#32D74B" stroke-opacity="0.35"/><text x="720.0" y="159" fill="#F2F2F4" font-family="-apple-system, BlinkMacSystemFont, Segoe UI, sans-serif" font-size="11" font-weight="500" text-anchor="middle" >In use</text><text x="474" y="158" fill="#85858C" font-family="-apple-system, BlinkMacSystemFont, Segoe UI, sans-serif" font-size="11" font-weight="700" text-anchor="start" >CURRENT ENGINE</text><text x="474" y="190" fill="#F2F2F4" font-family="-apple-system, BlinkMacSystemFont, Segoe UI, sans-serif" font-size="22" font-weight="700" text-anchor="start" >Qwen3-ASR 0.6B f32</text><text x="474" y="216" fill="#A8A8AD" font-family="-apple-system, BlinkMacSystemFont, Segoe UI, sans-serif" font-size="13" font-weight="400" text-anchor="start" >Best default for mixed Chinese and English</text><text x="474" y="234" fill="#A8A8AD" font-family="-apple-system, BlinkMacSystemFont, Segoe UI, sans-serif" font-size="13" font-weight="400" text-anchor="start" >dictation. Audio stays on this Mac.</text><rect x="474" y="270" width="58" height="20" rx="10" fill="#272729" stroke="#3A3A3C" stroke-width="1"/><text x="503.0" y="284" fill="#A8A8AD" font-family="-apple-system, BlinkMacSystemFont, Segoe UI, sans-serif" font-size="11" font-weight="500" text-anchor="middle" >Local</text><rect x="540" y="270" width="74" height="20" rx="10" fill="#272729" stroke="#3A3A3C" stroke-width="1"/><text x="577.0" y="284" fill="#A8A8AD" font-family="-apple-system, BlinkMacSystemFont, Segoe UI, sans-serif" font-size="11" font-weight="500" text-anchor="middle" >Offline</text><rect x="622" y="270" width="154" height="20" rx="10" fill="#272729" stroke="#3A3A3C" stroke-width="1"/><text x="699.0" y="284" fill="#A8A8AD" font-family="-apple-system, BlinkMacSystemFont, Segoe UI, sans-serif" font-size="11" font-weight="500" text-anchor="middle" >Chinese + English</text><rect x="474" y="296" width="74" height="20" rx="10" fill="#272729" stroke="#3A3A3C" stroke-width="1"/><text x="511.0" y="310" fill="#A8A8AD" font-family="-apple-system, BlinkMacSystemFont, Segoe UI, sans-serif" font-size="11" font-weight="500" text-anchor="middle" >1.75 GB</text><line x1="474" y1="316" x2="760" y2="316" stroke="#363638" stroke-width="1"/><text x="474" y="347" fill="#F2F2F4" font-family="-apple-system, BlinkMacSystemFont, Segoe UI, sans-serif" font-size="13" font-weight="600" text-anchor="start" >Details</text><circle cx="479" cy="369" r="3" fill="#A8A8AD" opacity="0.65"/><text x="490" y="374" fill="#A8A8AD" font-family="-apple-system, BlinkMacSystemFont, Segoe UI, sans-serif" font-size="12" font-weight="400" text-anchor="start" >Private local recognition</text><circle cx="479" cy="394" r="3" fill="#A8A8AD" opacity="0.65"/><text x="490" y="399" fill="#A8A8AD" font-family="-apple-system, BlinkMacSystemFont, Segoe UI, sans-serif" font-size="12" font-weight="400" text-anchor="start" >Balanced quality and latency</text><circle cx="479" cy="419" r="3" fill="#A8A8AD" opacity="0.65"/><text x="490" y="424" fill="#A8A8AD" font-family="-apple-system, BlinkMacSystemFont, Segoe UI, sans-serif" font-size="12" font-weight="400" text-anchor="start" >Works offline after install</text><rect x="474" y="459" width="286" height="96" rx="10" fill="#1E1E1E" stroke="#3A3A3C" stroke-width="1"/><text x="492" y="486" fill="#F2F2F4" font-family="-apple-system, BlinkMacSystemFont, Segoe UI, sans-serif" font-size="13" font-weight="600" text-anchor="start" >Why this is recommended</text><text x="492" y="508" fill="#A8A8AD" font-family="-apple-system, BlinkMacSystemFont, Segoe UI, sans-serif" font-size="12" font-weight="400" text-anchor="start" >It is the safest default: no API key, no</text><text x="492" y="525" fill="#A8A8AD" font-family="-apple-system, BlinkMacSystemFont, Segoe UI, sans-serif" font-size="12" font-weight="400" text-anchor="start" >network dependency, and strong</text><rect x="474" y="562" width="116" height="34" rx="8" fill="#242424" stroke="#3A3A3C" stroke-width="1"/><text x="532.0" y="584.0" fill="#F2F2F4" font-family="-apple-system, BlinkMacSystemFont, Segoe UI, sans-serif" font-size="13" font-weight="600" text-anchor="middle" >Show file</text><rect x="602" y="562" width="104" height="34" rx="8" fill="#242424" stroke="#3A3A3C" stroke-width="1"/><text x="654.0" y="584.0" fill="#F2F2F4" font-family="-apple-system, BlinkMacSystemFont, Segoe UI, sans-serif" font-size="13" font-weight="600" text-anchor="middle" >Delete...</text><line x1="40" y1="640" x2="860" y2="640" stroke="#363638" stroke-width="1"/><text x="72" y="668" fill="#A8A8AD" font-family="-apple-system, BlinkMacSystemFont, Segoe UI, sans-serif" font-size="12" font-weight="400" text-anchor="start" >Rows only identify engines. Status and actions live in the detail pane to avoid repeated pills and jammed buttons.</text></svg>