<svg xmlns="http://www.w3.org/2000/svg" width="900" height="720" viewBox="0 0 900 720"><rect x="0" y="0" width="900" height="720" rx="0" fill="#ECECEC"/><filter id="shadow" x="-10%" y="-10%" width="120%" height="130%"><feDropShadow dx="0" dy="12" stdDeviation="18" flood-color="#000000" flood-opacity="0.13"/></filter><rect x="40" y="24" width="820" height="660" rx="18" fill="#FFFFFF" stroke="#D9D9DD" filter="url(#shadow)"/><text x="72" y="72" fill="#242426" font-family="-apple-system, BlinkMacSystemFont, Segoe UI, sans-serif" font-size="26" font-weight="700" text-anchor="start" >Choose recognition engine</text><text x="72" y="96" fill="#6C6C70" font-family="-apple-system, BlinkMacSystemFont, Segoe UI, sans-serif" font-size="14" font-weight="400" text-anchor="start" >Advanced selection for exact local, cloud, and experimental recognizers.</text><rect x="704" y="60" width="112" height="32" rx="8" fill="#FFFFFF" stroke="#D9D9DD" stroke-width="1"/><text x="760.0" y="81.0" fill="#242426" font-family="-apple-system, BlinkMacSystemFont, Segoe UI, sans-serif" font-size="13" font-weight="600" text-anchor="middle" >Done</text><rect x="72" y="124" width="326" height="38" rx="10" fill="#F7F7F8" stroke="#D9D9DD" stroke-width="1"/><circle cx="94" cy="142" r="5" fill="none" stroke="#8A8A8E" stroke-width="1.5"/><line x1="98" y1="146" x2="103" y2="151" stroke="#8A8A8E" stroke-width="1.5" stroke-linecap="round"/><text x="114" y="148" fill="#8A8A8E" font-family="-apple-system, BlinkMacSystemFont, Segoe UI, sans-serif" font-size="13" font-weight="400" text-anchor="start" >Search engines</text><rect x="72" y="170" width="54" height="30" rx="15" fill="#242426"/><text x="99.0" y="190" fill="#FFFFFF" font-family="-apple-system, BlinkMacSystemFont, Segoe UI, sans-serif" font-size="12" font-weight="600" text-anchor="middle" >All</text><rect x="134" y="170" width="66" height="30" rx="15" fill="#FFFFFF" stroke="#D9D9DD" stroke-width="1"/><text x="167.0" y="190" fill="#6C6C70" font-family="-apple-system, BlinkMacSystemFont, Segoe UI, sans-serif" font-size="12" font-weight="600" text-anchor="middle" >Local</text><rect x="208" y="170" width="68" height="30" rx="15" fill="#FFFFFF" stroke="#D9D9DD" stroke-width="1"/><text x="242.0" y="190" fill="#6C6C70" font-family="-apple-system, BlinkMacSystemFont, Segoe UI, sans-serif" font-size="12" font-weight="600" text-anchor="middle" >Cloud</text><text x="72" y="212" fill="#8A8A8E" font-family="-apple-system, BlinkMacSystemFont, Segoe UI, sans-serif" font-size="11" font-weight="700" text-anchor="start" >Local</text><rect x="72" y="222" width="326" height="54" rx="9" fill="transparent"/><circle cx="94" cy="244" r="13" fill="#F7F7F8" stroke="#D9D9DD"/><rect x="82" y="235" width="25" height="18" rx="3" fill="none" stroke="#6C6C70" stroke-width="1.5"/><line x1="90" y1="257" x2="99" y2="257" stroke="#6C6C70" stroke-width="1.5"/><line x1="94.5" y1="253" x2="94.5" y2="257" stroke="#6C6C70" stroke-width="1.5"/><text x="116" y="243" fill="#242426" font-family="-apple-system, BlinkMacSystemFont, Segoe UI, sans-serif" font-size="13" font-weight="600" text-anchor="start" >Qwen3-ASR 0.6B f32</text><text x="116" y="261" fill="#6C6C70" font-family="-apple-system, BlinkMacSystemFont, Segoe UI, sans-serif" font-size="11" font-weight="400" text-anchor="start" >Recommended mixed Chinese/English recognition.</text><rect x="72" y="280" width="326" height="54" rx="9" fill="transparent"/><circle cx="94" cy="302" r="13" fill="#F7F7F8" stroke="#D9D9DD"/><rect x="82" y="293" width="25" height="18" rx="3" fill="none" stroke="#6C6C70" stroke-width="1.5"/><line x1="90" y1="315" x2="99" y2="315" stroke="#6C6C70" stroke-width="1.5"/><line x1="94.5" y1="311" x2="94.5" y2="315" stroke="#6C6C70" stroke-width="1.5"/><text x="116" y="301" fill="#242426" font-family="-apple-system, BlinkMacSystemFont, Segoe UI, sans-serif" font-size="13" font-weight="600" text-anchor="start" >Qwen3-ASR 0.6B int8</text><text x="116" y="319" fill="#6C6C70" font-family="-apple-system, BlinkMacSystemFont, Segoe UI, sans-serif" font-size="11" font-weight="400" text-anchor="start" >Same coverage with a smaller memory footprint.</text><rect x="72" y="338" width="326" height="54" rx="9" fill="transparent"/><circle cx="94" cy="360" r="13" fill="#F7F7F8" stroke="#D9D9DD"/><rect x="82" y="351" width="25" height="18" rx="3" fill="none" stroke="#6C6C70" stroke-width="1.5"/><line x1="90" y1="373" x2="99" y2="373" stroke="#6C6C70" stroke-width="1.5"/><line x1="94.5" y1="369" x2="94.5" y2="373" stroke="#6C6C70" stroke-width="1.5"/><text x="116" y="359" fill="#242426" font-family="-apple-system, BlinkMacSystemFont, Segoe UI, sans-serif" font-size="13" font-weight="600" text-anchor="start" >Parakeet TDT 0.6B v3</text><text x="116" y="377" fill="#6C6C70" font-family="-apple-system, BlinkMacSystemFont, Segoe UI, sans-serif" font-size="11" font-weight="400" text-anchor="start" >Fast local recognition for English and European languages.</text><text x="72" y="406" fill="#8A8A8E" font-family="-apple-system, BlinkMacSystemFont, Segoe UI, sans-serif" font-size="11" font-weight="700" text-anchor="start" >Cloud</text><rect x="72" y="416" width="326" height="54" rx="9" fill="transparent"/><circle cx="94" cy="438" r="13" fill="#F7F7F8" stroke="#D9D9DD"/><path d="M91 445h18a7 7 0 0 0 0-14 10 10 0 0 0-19 3A6 6 0 0 0 91 445Z" fill="none" stroke="#6C6C70" stroke-width="1.5" stroke-linejoin="round"/><text x="116" y="437" fill="#242426" font-family="-apple-system, BlinkMacSystemFont, Segoe UI, sans-serif" font-size="13" font-weight="600" text-anchor="start" >Groq Whisper Large V3 Turbo</text><text x="116" y="455" fill="#6C6C70" font-family="-apple-system, BlinkMacSystemFont, Segoe UI, sans-serif" font-size="11" font-weight="400" text-anchor="start" >Fast cloud recognition. Good fallback for hard audio.</text><rect x="72" y="474" width="326" height="54" rx="9" fill="#ECECEF" stroke="#C9C9CE" stroke-width="1"/><circle cx="94" cy="496" r="13" fill="#FFFFFF" stroke="#D9D9DD"/><path d="M91 503h18a7 7 0 0 0 0-14 10 10 0 0 0-19 3A6 6 0 0 0 91 503Z" fill="none" stroke="#6C6C70" stroke-width="1.5" stroke-linejoin="round"/><text x="116" y="495" fill="#242426" font-family="-apple-system, BlinkMacSystemFont, Segoe UI, sans-serif" font-size="13" font-weight="600" text-anchor="start" >OpenAI GPT-4o Transcribe</text><text x="116" y="513" fill="#6C6C70" font-family="-apple-system, BlinkMacSystemFont, Segoe UI, sans-serif" font-size="11" font-weight="400" text-anchor="start" >Cloud speech-to-text with optional language hint.</text><text x="72" y="542" fill="#8A8A8E" font-family="-apple-system, BlinkMacSystemFont, Segoe UI, sans-serif" font-size="11" font-weight="700" text-anchor="start" >Experimental</text><rect x="72" y="552" width="326" height="54" rx="9" fill="transparent"/><circle cx="94" cy="574" r="13" fill="#F7F7F8" stroke="#D9D9DD"/><rect x="82" y="565" width="25" height="18" rx="3" fill="none" stroke="#6C6C70" stroke-width="1.5"/><line x1="90" y1="587" x2="99" y2="587" stroke="#6C6C70" stroke-width="1.5"/><line x1="94.5" y1="583" x2="94.5" y2="587" stroke="#6C6C70" stroke-width="1.5"/><text x="116" y="573" fill="#242426" font-family="-apple-system, BlinkMacSystemFont, Segoe UI, sans-serif" font-size="13" font-weight="600" text-anchor="start" >WhisperKit large-v3 turbo</text><text x="116" y="591" fill="#6C6C70" font-family="-apple-system, BlinkMacSystemFont, Segoe UI, sans-serif" font-size="11" font-weight="400" text-anchor="start" >Planned local fallback runtime. Not packaged yet.</text><line x1="424" y1="124" x2="424" y2="622" stroke="#E5E5E8" stroke-width="1"/><rect x="450" y="124" width="334" height="498" rx="12" fill="#F7F7F8" stroke="#D9D9DD" stroke-width="1"/><rect x="626" y="144" width="139" height="22" rx="11" fill="#FF9500" fill-opacity="0.12" stroke="#FF9500" stroke-opacity="0.35"/><text x="695.5" y="159" fill="#242426" font-family="-apple-system, BlinkMacSystemFont, Segoe UI, sans-serif" font-size="11" font-weight="500" text-anchor="middle" >Needs API key</text><text x="474" y="158" fill="#8A8A8E" font-family="-apple-system, BlinkMacSystemFont, Segoe UI, sans-serif" font-size="11" font-weight="700" text-anchor="start" >CLOUD ENGINE</text><text x="474" y="190" fill="#242426" font-family="-apple-system, BlinkMacSystemFont, Segoe UI, sans-serif" font-size="22" font-weight="700" text-anchor="start" >OpenAI GPT-4o Transcribe</text><text x="474" y="216" fill="#6C6C70" font-family="-apple-system, BlinkMacSystemFont, Segoe UI, sans-serif" font-size="13" font-weight="400" text-anchor="start" >Use a cloud recognizer when local results drift</text><text x="474" y="234" fill="#6C6C70" font-family="-apple-system, BlinkMacSystemFont, Segoe UI, sans-serif" font-size="13" font-weight="400" text-anchor="start" >or you need provider-specific transcription.</text><rect x="474" y="270" width="58" height="20" rx="10" fill="#F7F7F8" stroke="#D9D9DD" stroke-width="1"/><text x="503.0" y="284" fill="#6C6C70" font-family="-apple-system, BlinkMacSystemFont, Segoe UI, sans-serif" font-size="11" font-weight="500" text-anchor="middle" >Cloud</text><rect x="540" y="270" width="74" height="20" rx="10" fill="#F7F7F8" stroke="#D9D9DD" stroke-width="1"/><text x="577.0" y="284" fill="#6C6C70" font-family="-apple-system, BlinkMacSystemFont, Segoe UI, sans-serif" font-size="11" font-weight="500" text-anchor="middle" >Network</text><rect x="622" y="270" width="146" height="20" rx="10" fill="#F7F7F8" stroke="#D9D9DD" stroke-width="1"/><text x="695.0" y="284" fill="#6C6C70" font-family="-apple-system, BlinkMacSystemFont, Segoe UI, sans-serif" font-size="11" font-weight="500" text-anchor="middle" >API key required</text><line x1="474" y1="316" x2="760" y2="316" stroke="#E5E5E8" stroke-width="1"/><text x="474" y="347" fill="#242426" font-family="-apple-system, BlinkMacSystemFont, Segoe UI, sans-serif" font-size="13" font-weight="600" text-anchor="start" >Details</text><circle cx="479" cy="369" r="3" fill="#6C6C70" opacity="0.65"/><text x="490" y="374" fill="#6C6C70" font-family="-apple-system, BlinkMacSystemFont, Segoe UI, sans-serif" font-size="12" font-weight="400" text-anchor="start" >Requires network access</text><circle cx="479" cy="394" r="3" fill="#6C6C70" opacity="0.65"/><text x="490" y="399" fill="#6C6C70" font-family="-apple-system, BlinkMacSystemFont, Segoe UI, sans-serif" font-size="12" font-weight="400" text-anchor="start" >Sends audio to provider</text><circle cx="479" cy="419" r="3" fill="#6C6C70" opacity="0.65"/><text x="490" y="424" fill="#6C6C70" font-family="-apple-system, BlinkMacSystemFont, Segoe UI, sans-serif" font-size="12" font-weight="400" text-anchor="start" >Supports optional language hint</text><rect x="474" y="459" width="286" height="96" rx="10" fill="#FFFFFF" stroke="#D9D9DD" stroke-width="1"/><text x="492" y="486" fill="#242426" font-family="-apple-system, BlinkMacSystemFont, Segoe UI, sans-serif" font-size="13" font-weight="600" text-anchor="start" >Before switching</text><text x="492" y="508" fill="#6C6C70" font-family="-apple-system, BlinkMacSystemFont, Segoe UI, sans-serif" font-size="12" font-weight="400" text-anchor="start" >Add a provider key, test the connection,</text><text x="492" y="525" fill="#6C6C70" font-family="-apple-system, BlinkMacSystemFont, Segoe UI, sans-serif" font-size="12" font-weight="400" text-anchor="start" >then use this engine from the same sheet.</text><rect x="608" y="562" width="152" height="34" rx="8" fill="#242426"/><text x="684.0" y="584.0" fill="#FFFFFF" font-family="-apple-system, BlinkMacSystemFont, Segoe UI, sans-serif" font-size="13" font-weight="600" text-anchor="middle" >Configure API key</text><rect x="492" y="562" width="104" height="34" rx="8" fill="#F7F7F8" stroke="#D9D9DD" stroke-width="1"/><text x="544.0" y="584.0" fill="#8A8A8E" font-family="-apple-system, BlinkMacSystemFont, Segoe UI, sans-serif" font-size="13" font-weight="600" text-anchor="middle" >Use after setup</text><line x1="40" y1="640" x2="860" y2="640" stroke="#E5E5E8" stroke-width="1"/><text x="72" y="668" fill="#6C6C70" font-family="-apple-system, BlinkMacSystemFont, Segoe UI, sans-serif" font-size="12" font-weight="400" text-anchor="start" >Rows only identify engines. Status and actions live in the detail pane to avoid repeated pills and jammed buttons.</text></svg>