<svg width="1024" height="1024" viewBox="0 0 1024 1024" fill="none" xmlns="http://www.w3.org/2000/svg">
<path d="M511.379 132.971C720.368 132.971 889.786 302.39 889.786 511.379C889.786 720.368 720.368 889.786 511.379 889.786C302.39 889.786 132.971 720.368 132.971 511.379C132.971 302.39 302.39 132.971 511.379 132.971ZM512.621 320.621C407.269 320.621 321.864 406.027 321.864 511.379C321.864 616.731 407.269 702.136 512.621 702.136C617.973 702.136 703.379 616.731 703.379 511.379C703.379 406.027 617.973 320.621 512.621 320.621Z" fill="#F6C177" fill-opacity="0.1" style="fill:#F6C177;fill:color(display-p3 0.9647 0.7569 0.4667);fill-opacity:0.1;"/>
<path d="M511.379 132.971C720.368 132.971 889.786 302.39 889.786 511.379C889.786 720.368 720.368 889.786 511.379 889.786C302.39 889.786 132.971 720.368 132.971 511.379C132.971 302.39 302.39 132.971 511.379 132.971ZM512.621 320.621C407.269 320.621 321.864 406.027 321.864 511.379C321.864 616.731 407.269 702.136 512.621 702.136C617.973 702.136 703.379 616.731 703.379 511.379C703.379 406.027 617.973 320.621 512.621 320.621Z" fill="#F4F4F4" fill-opacity="0.7" style="fill:#F4F4F4;fill:color(display-p3 0.9569 0.9569 0.9569);fill-opacity:0.7;"/>
</svg>
