<svg xmlns="http://www.w3.org/2000/svg" width="1280" height="820" viewBox="0 0 1280 820"><defs>
        <filter id="shadowSoft" x="-10%" y="-10%" width="120%" height="130%"><feDropShadow dx="0" dy="8" stdDeviation="14" flood-color="#000000" flood-opacity="0.10"/></filter>
        <filter id="tabShadow" x="-20%" y="-20%" width="140%" height="160%"><feDropShadow dx="0" dy="1" stdDeviation="1" flood-color="#000000" flood-opacity="0.06"/></filter>
        <clipPath id="clipRound"><rect x="0" y="0" width="1" height="1" rx="8"/></clipPath>
        </defs><rect x="0" y="0" width="1280" height="820" fill="#ECECEC"/><rect x="0" y="0" width="260" height="820" fill="#FFFFFF"/><circle cx="28" cy="28" r="8" fill="#FF5F57" stroke="#E04D48" stroke-width="1"/><circle cx="56" cy="28" r="8" fill="#FFBD2E" stroke="#D7A029" stroke-width="1"/><circle cx="84" cy="28" r="8" fill="#28C840" stroke="#25A83B" stroke-width="1"/><line x1="222.8" y1="25.68" x2="237.2" y2="25.68" stroke="#242426" stroke-width="1.6"/><circle cx="233.6" cy="25.68" r="1.44" fill="#FFFFFF" stroke="#242426" stroke-width="1.6"/><line x1="222.8" y1="30.0" x2="237.2" y2="30.0" stroke="#242426" stroke-width="1.6"/><circle cx="226.4" cy="30.0" r="1.44" fill="#FFFFFF" stroke="#242426" stroke-width="1.6"/><line x1="222.8" y1="34.32" x2="237.2" y2="34.32" stroke="#242426" stroke-width="1.6"/><circle cx="231.2" cy="34.32" r="1.44" fill="#FFFFFF" stroke="#242426" stroke-width="1.6"/><rect x="28" y="139" width="6" height="6" rx="1" ry="1" fill="none" stroke="#737376" stroke-width="1.6"/><rect x="28" y="149" width="6" height="6" rx="1" ry="1" fill="none" stroke="#737376" stroke-width="1.6"/><rect x="38" y="139" width="6" height="6" rx="1" ry="1" fill="none" stroke="#737376" stroke-width="1.6"/><rect x="38" y="149" width="6" height="6" rx="1" ry="1" fill="none" stroke="#737376" stroke-width="1.6"/><text x="62" y="152" font-family="-apple-system, BlinkMacSystemFont, 'SF Pro Text', 'Helvetica Neue', Arial, sans-serif" font-size="15" font-weight="500" fill="#737376" text-anchor="start">Dashboard</text><rect x="32.2" y="188.28" width="10.08" height="12.48" rx="2" ry="2" fill="none" stroke="#737376" stroke-width="1.6"/><rect x="29.32" y="191.16" width="10.08" height="12.48" rx="2" ry="2" fill="none" stroke="#737376" stroke-width="1.6"/><text x="62" y="200" font-family="-apple-system, BlinkMacSystemFont, 'SF Pro Text', 'Helvetica Neue', Arial, sans-serif" font-size="15" font-weight="500" fill="#737376" text-anchor="start">Clipboard</text><rect x="30" y="232" width="10" height="18" rx="5" ry="5" fill="none" stroke="#737376" stroke-width="1.6"/><path d="M 25 244 C 25 254 45 254 45 244 M 35 254 V 260" fill="none" stroke="#737376" stroke-width="1.6" stroke-linecap="round" stroke-linejoin="round"/><text x="62" y="248" font-family="-apple-system, BlinkMacSystemFont, 'SF Pro Text', 'Helvetica Neue', Arial, sans-serif" font-size="15" font-weight="500" fill="#737376" text-anchor="start">Voice</text><rect x="16" y="272" width="228" height="38" rx="8" ry="8" fill="#E8E8E8"/><circle cx="37.0" cy="291.0" r="10.8" fill="none" stroke="#242426" stroke-width="1.6"/><path d="M 37.0 285.0 V 293.4 M 33.4 290.52 L 37.0 294.12 L 40.6 290.52" fill="none" stroke="#242426" stroke-width="1.6" stroke-linecap="round" stroke-linejoin="round"/><text x="62" y="296" font-family="-apple-system, BlinkMacSystemFont, 'SF Pro Text', 'Helvetica Neue', Arial, sans-serif" font-size="15" font-weight="500" fill="#242426" text-anchor="start">Downloads</text><rect x="204" y="277" width="28" height="28" rx="14" ry="14" fill="#007AFF"/><text x="218" y="296" font-family="-apple-system, BlinkMacSystemFont, 'SF Pro Text', 'Helvetica Neue', Arial, sans-serif" font-size="13" font-weight="700" fill="#FFFFFF" text-anchor="middle">1</text><path d="M 29.32 336.12 H 35.08 L 37.0 338.52 H 44.68 V 345.24 H 29.32 Z" fill="none" stroke="#737376" stroke-width="1.6" stroke-linecap="round" stroke-linejoin="round"/><text x="62" y="344" font-family="-apple-system, BlinkMacSystemFont, 'SF Pro Text', 'Helvetica Neue', Arial, sans-serif" font-size="15" font-weight="500" fill="#737376" text-anchor="start">Folder Preview</text><line x1="27" y1="380" x2="45" y2="380" stroke="#737376" stroke-width="1.8"/><line x1="27" y1="388" x2="45" y2="388" stroke="#737376" stroke-width="1.8"/><line x1="27" y1="396" x2="45" y2="396" stroke="#737376" stroke-width="1.8"/><text x="62" y="392" font-family="-apple-system, BlinkMacSystemFont, 'SF Pro Text', 'Helvetica Neue', Arial, sans-serif" font-size="15" font-weight="500" fill="#737376" text-anchor="start">Snippets</text><rect x="27" y="426" width="9" height="9" rx="1" ry="1" fill="none" stroke="#737376" stroke-width="1.6"/><rect x="39" y="431" width="9" height="12" rx="1" ry="1" fill="none" stroke="#737376" stroke-width="1.6"/><text x="62" y="440" font-family="-apple-system, BlinkMacSystemFont, 'SF Pro Text', 'Helvetica Neue', Arial, sans-serif" font-size="15" font-weight="500" fill="#737376" text-anchor="start">Window Layouts</text><path d="M 31 491 C 28 483 27 476 31 475 C 33 475 34 479 34 482 V 471 C 34 468 39 468 39 472 V 481 M 39 477 C 43 474 46 478 44 484" fill="none" stroke="#737376" stroke-width="1.6" stroke-linecap="round" stroke-linejoin="round"/><text x="62" y="488" font-family="-apple-system, BlinkMacSystemFont, 'SF Pro Text', 'Helvetica Neue', Arial, sans-serif" font-size="15" font-weight="500" fill="#737376" text-anchor="start">Window Grab</text><line x1="16" y1="748" x2="244" y2="748" stroke="#DADADA" stroke-width="1"/><circle cx="34.0" cy="780.0" r="5.2" fill="none" stroke="#737376" stroke-width="1.5"/><line x1="41.2" y1="780.0" x2="43.0" y2="780.0" stroke="#737376" stroke-width="1.5"/><line x1="39.09116882454314" y1="785.0911688245432" x2="40.36396103067893" y2="786.363961030679" stroke="#737376" stroke-width="1.5"/><line x1="34.0" y1="787.2" x2="34.0" y2="789.0" stroke="#737376" stroke-width="1.5"/><line x1="28.90883117545686" y1="785.0911688245432" x2="27.63603896932107" y2="786.363961030679" stroke="#737376" stroke-width="1.5"/><line x1="26.8" y1="780.0" x2="25.0" y2="780.0" stroke="#737376" stroke-width="1.5"/><line x1="28.908831175456857" y1="774.9088311754568" x2="27.63603896932107" y2="773.636038969321" stroke="#737376" stroke-width="1.5"/><line x1="34.0" y1="772.8" x2="34.0" y2="771.0" stroke="#737376" stroke-width="1.5"/><line x1="39.09116882454314" y1="774.9088311754568" x2="40.36396103067892" y2="773.636038969321" stroke="#737376" stroke-width="1.5"/><text x="58" y="786" font-family="-apple-system, BlinkMacSystemFont, 'SF Pro Text', 'Helvetica Neue', Arial, sans-serif" font-size="14" font-weight="500" fill="#737376" text-anchor="start">Settings</text><line x1="260" y1="0" x2="260" y2="820" stroke="#DADADA" stroke-width="1"/><text x="300" y="88" font-family="-apple-system, BlinkMacSystemFont, 'SF Pro Text', 'Helvetica Neue', Arial, sans-serif" font-size="26" font-weight="700" fill="#242426" text-anchor="start">Downloads</text><text x="300" y="116" font-family="-apple-system, BlinkMacSystemFont, 'SF Pro Text', 'Helvetica Neue', Arial, sans-serif" font-size="15" font-weight="400" fill="#737376" text-anchor="start">Queue media downloads, review results, and tune downloader behavior.</text><rect x="300" y="142" width="334" height="38" rx="19" ry="19" fill="#FFFFFF" stroke="#CACACA" stroke-width="1"/><circle cx="328.0" cy="160.0" r="7.2" fill="none" stroke="#737376" stroke-width="1.6"/><path d="M 328.0 156.0 V 161.6 M 325.6 159.68 L 328.0 162.08 L 330.4 159.68" fill="none" stroke="#737376" stroke-width="1.6" stroke-linecap="round" stroke-linejoin="round"/><text x="342" y="167" font-family="-apple-system, BlinkMacSystemFont, 'SF Pro Text', 'Helvetica Neue', Arial, sans-serif" font-size="14" font-weight="600" fill="#737376" text-anchor="start">Queue</text><rect x="394" y="146" width="122" height="30" rx="15" ry="15" fill="#DEDEDF" stroke="#C7C7C9" stroke-width="1"/><circle cx="418.0" cy="160.0" r="7.2" fill="none" stroke="#242426" stroke-width="1.6"/><path d="M 414.8 160.32 L 417.2 162.56 L 421.52 157.6" fill="none" stroke="#242426" stroke-width="1.6" stroke-linecap="round" stroke-linejoin="round"/><text x="432" y="167" font-family="-apple-system, BlinkMacSystemFont, 'SF Pro Text', 'Helvetica Neue', Arial, sans-serif" font-size="14" font-weight="700" fill="#242426" text-anchor="start">Completed</text><line x1="535.2" y1="157.12" x2="544.8" y2="157.12" stroke="#737376" stroke-width="1.6"/><circle cx="542.4" cy="157.12" r="0.96" fill="#FFFFFF" stroke="#737376" stroke-width="1.6"/><line x1="535.2" y1="160.0" x2="544.8" y2="160.0" stroke="#737376" stroke-width="1.6"/><circle cx="537.6" cy="160.0" r="0.96" fill="#FFFFFF" stroke="#737376" stroke-width="1.6"/><line x1="535.2" y1="162.88" x2="544.8" y2="162.88" stroke="#737376" stroke-width="1.6"/><circle cx="540.8" cy="162.88" r="0.96" fill="#FFFFFF" stroke="#737376" stroke-width="1.6"/><text x="554" y="167" font-family="-apple-system, BlinkMacSystemFont, 'SF Pro Text', 'Helvetica Neue', Arial, sans-serif" font-size="14" font-weight="600" fill="#737376" text-anchor="start">Settings</text><rect x="992" y="96" width="86" height="30" rx="7" ry="7" fill="#FFFFFF" stroke="#E2E2E2" stroke-width="1"/><text x="1035.0" y="116" font-family="-apple-system, BlinkMacSystemFont, 'SF Pro Text', 'Helvetica Neue', Arial, sans-serif" font-size="13" font-weight="500" fill="#242426" text-anchor="middle">Paste URL</text><rect x="1088" y="96" width="86" height="30" rx="7" ry="7" fill="#242426" stroke="#242426" stroke-width="1"/><text x="1131.0" y="116" font-family="-apple-system, BlinkMacSystemFont, 'SF Pro Text', 'Helvetica Neue', Arial, sans-serif" font-size="13" font-weight="600" fill="#FFFFFF" text-anchor="middle">Add URL</text><line x1="260" y1="210" x2="1280" y2="210" stroke="#DADADA" stroke-width="1"/><text x="300" y="250" font-family="-apple-system, BlinkMacSystemFont, 'SF Pro Text', 'Helvetica Neue', Arial, sans-serif" font-size="17" font-weight="700" fill="#242426" text-anchor="start">Completed</text><rect x="300" y="272" width="760" height="353" rx="8" ry="8" fill="#FFFFFF" stroke="#E2E2E2" stroke-width="1"/><rect x="300" y="272" width="760" height="52" rx="8" ry="8" fill="#FFFFFF"/><text x="316" y="304" font-family="-apple-system, BlinkMacSystemFont, 'SF Pro Text', 'Helvetica Neue', Arial, sans-serif" font-size="15" font-weight="700" fill="#242426" text-anchor="start">Downloads</text><rect x="402.5" y="286" width="24" height="24" rx="12" ry="12" fill="#F4F4F4" stroke="#E2E2E2" stroke-width="1"/><text x="414.5" y="303" font-family="-apple-system, BlinkMacSystemFont, 'SF Pro Text', 'Helvetica Neue', Arial, sans-serif" font-size="12" font-weight="700" fill="#737376" text-anchor="middle">3</text><rect x="932" y="283" width="112" height="30" rx="7" ry="7" fill="#FFFFFF" stroke="#E2E2E2" stroke-width="1"/><text x="988.0" y="303" font-family="-apple-system, BlinkMacSystemFont, 'SF Pro Text', 'Helvetica Neue', Arial, sans-serif" font-size="13" font-weight="500" fill="#242426" text-anchor="middle">Open Folder</text><line x1="300" y1="324" x2="1060" y2="324" stroke="#DADADA" stroke-width="1"/><rect x="300" y="324" width="760" height="100" fill="#FFFFFF"/><rect x="314" y="346" width="82" height="48" rx="8" ry="8" fill="#ECECEC" stroke="#E2E2E2" stroke-width="1"/><rect x="315" y="347" width="80" height="46" rx="7" ry="7" fill="#6F7378" opacity="0.25"/><circle cx="332" cy="362" r="10" fill="#6F7378" opacity="0.28"/><rect x="348" y="358" width="34" height="8" rx="4" ry="4" fill="#6F7378" opacity="0.35"/><rect x="326" y="378" width="48" height="5" rx="3" ry="3" fill="#6F7378" opacity="0.35"/><circle cx="355.0" cy="370.0" r="12" fill="#000000" opacity="0.32"/><path d="M 351.0 363.0 L 362.0 370.0 L 351.0 377.0 Z" fill="#FFFFFF" opacity="0.88"/><rect x="412" y="342" width="56.8" height="24" rx="12" ry="12" fill="#28CD41" stroke="#28CD41" stroke-width="1" opacity="0.12"/><circle cx="424" cy="354" r="3.5" fill="#28CD41"/><text x="434" y="358" font-family="-apple-system, BlinkMacSystemFont, 'SF Pro Text', 'Helvetica Neue', Arial, sans-serif" font-size="11" font-weight="700" fill="#28CD41" text-anchor="start">DONE</text><text x="480.8" y="359" font-family="-apple-system, BlinkMacSystemFont, 'SF Pro Text', 'Helvetica Neue', Arial, sans-serif" font-size="16" font-weight="700" fill="#242426" text-anchor="start">Bilibili limited-public course: sales, pricing, an…</text><text x="412" y="384" font-family="-apple-system, BlinkMacSystemFont, 'SF Pro Text', 'Helvetica Neue', Arial, sans-serif" font-size="13" font-weight="400" fill="#737376" text-anchor="start">Course Notes Channel · 25:55</text><rect x="412" y="397" width="560" height="3" rx="1.5" ry="1.5" fill="#DADADA"/><rect x="412" y="397" width="560.0" height="3" rx="1.5" ry="1.5" fill="#28CD41"/><text x="412" y="417" font-family="-apple-system, BlinkMacSystemFont, 'SF Pro Text', 'Helvetica Neue', Arial, sans-serif" font-size="13" font-weight="400" fill="#737376" text-anchor="start">Completed · 386 MB</text><path d="M 931.6 363.6 H 936.4 L 938.0 365.6 H 944.4 V 371.2 H 931.6 Z" fill="none" stroke="#737376" stroke-width="1.7" stroke-linecap="round" stroke-linejoin="round"/><path d="M 968.0 363.6 H 976.0 M 970.0 362.8 H 974.0 M 969.2 364.4 L 970.0 371.6 H 974.0 L 974.8 364.4" fill="none" stroke="#FF3B30" stroke-width="1.7" stroke-linecap="round" stroke-linejoin="round"/><line x1="300" y1="424" x2="1060" y2="424" stroke="#DADADA" stroke-width="1"/><rect x="300" y="424" width="760" height="100" fill="#FFFFFF"/><rect x="314" y="446" width="82" height="48" rx="8" ry="8" fill="#ECECEC" stroke="#E2E2E2" stroke-width="1"/><rect x="315" y="447" width="80" height="46" rx="7" ry="7" fill="#6F7378" opacity="0.25"/><circle cx="332" cy="462" r="10" fill="#6F7378" opacity="0.28"/><rect x="348" y="458" width="34" height="8" rx="4" ry="4" fill="#6F7378" opacity="0.35"/><rect x="326" y="478" width="48" height="5" rx="3" ry="3" fill="#6F7378" opacity="0.35"/><circle cx="355.0" cy="470.0" r="12" fill="#000000" opacity="0.32"/><path d="M 351.0 463.0 L 362.0 470.0 L 351.0 477.0 Z" fill="#FFFFFF" opacity="0.88"/><rect x="412" y="442" width="56.8" height="24" rx="12" ry="12" fill="#28CD41" stroke="#28CD41" stroke-width="1" opacity="0.12"/><circle cx="424" cy="454" r="3.5" fill="#28CD41"/><text x="434" y="458" font-family="-apple-system, BlinkMacSystemFont, 'SF Pro Text', 'Helvetica Neue', Arial, sans-serif" font-size="11" font-weight="700" fill="#28CD41" text-anchor="start">DONE</text><text x="480.8" y="459" font-family="-apple-system, BlinkMacSystemFont, 'SF Pro Text', 'Helvetica Neue', Arial, sans-serif" font-size="16" font-weight="700" fill="#242426" text-anchor="start">The MOST DISRESPECTFUL &amp; BRUTAL Ankle Breaker Of A…</text><text x="412" y="484" font-family="-apple-system, BlinkMacSystemFont, 'SF Pro Text', 'Helvetica Neue', Arial, sans-serif" font-size="13" font-weight="400" fill="#737376" text-anchor="start">The Next Chapter · 36:29</text><rect x="412" y="497" width="560" height="3" rx="1.5" ry="1.5" fill="#DADADA"/><rect x="412" y="497" width="560.0" height="3" rx="1.5" ry="1.5" fill="#28CD41"/><text x="412" y="517" font-family="-apple-system, BlinkMacSystemFont, 'SF Pro Text', 'Helvetica Neue', Arial, sans-serif" font-size="13" font-weight="400" fill="#737376" text-anchor="start">Completed · 842 MB</text><path d="M 931.6 463.6 H 936.4 L 938.0 465.6 H 944.4 V 471.2 H 931.6 Z" fill="none" stroke="#737376" stroke-width="1.7" stroke-linecap="round" stroke-linejoin="round"/><path d="M 968.0 463.6 H 976.0 M 970.0 462.8 H 974.0 M 969.2 464.4 L 970.0 471.6 H 974.0 L 974.8 464.4" fill="none" stroke="#FF3B30" stroke-width="1.7" stroke-linecap="round" stroke-linejoin="round"/><line x1="300" y1="524" x2="1060" y2="524" stroke="#DADADA" stroke-width="1"/><rect x="300" y="524" width="760" height="100" fill="#FFFFFF"/><rect x="314" y="546" width="82" height="48" rx="8" ry="8" fill="#ECECEC" stroke="#E2E2E2" stroke-width="1"/><rect x="315" y="547" width="80" height="46" rx="7" ry="7" fill="#6F7378" opacity="0.25"/><circle cx="332" cy="562" r="10" fill="#6F7378" opacity="0.28"/><rect x="348" y="558" width="34" height="8" rx="4" ry="4" fill="#6F7378" opacity="0.35"/><rect x="326" y="578" width="48" height="5" rx="3" ry="3" fill="#6F7378" opacity="0.35"/><circle cx="355.0" cy="570.0" r="12" fill="#000000" opacity="0.32"/><path d="M 351.0 563.0 L 362.0 570.0 L 351.0 577.0 Z" fill="#FFFFFF" opacity="0.88"/><rect x="412" y="542" width="56.8" height="24" rx="12" ry="12" fill="#28CD41" stroke="#28CD41" stroke-width="1" opacity="0.12"/><circle cx="424" cy="554" r="3.5" fill="#28CD41"/><text x="434" y="558" font-family="-apple-system, BlinkMacSystemFont, 'SF Pro Text', 'Helvetica Neue', Arial, sans-serif" font-size="11" font-weight="700" fill="#28CD41" text-anchor="start">DONE</text><text x="480.8" y="559" font-family="-apple-system, BlinkMacSystemFont, 'SF Pro Text', 'Helvetica Neue', Arial, sans-serif" font-size="16" font-weight="700" fill="#242426" text-anchor="start">SwiftUI menus, sheets, and keyboard commands expla…</text><text x="412" y="584" font-family="-apple-system, BlinkMacSystemFont, 'SF Pro Text', 'Helvetica Neue', Arial, sans-serif" font-size="13" font-weight="400" fill="#737376" text-anchor="start">Mac Dev Weekly · 12:08</text><rect x="412" y="597" width="560" height="3" rx="1.5" ry="1.5" fill="#DADADA"/><rect x="412" y="597" width="560.0" height="3" rx="1.5" ry="1.5" fill="#28CD41"/><text x="412" y="617" font-family="-apple-system, BlinkMacSystemFont, 'SF Pro Text', 'Helvetica Neue', Arial, sans-serif" font-size="13" font-weight="400" fill="#737376" text-anchor="start">Completed · 102 MB</text><path d="M 931.6 563.6 H 936.4 L 938.0 565.6 H 944.4 V 571.2 H 931.6 Z" fill="none" stroke="#737376" stroke-width="1.7" stroke-linecap="round" stroke-linejoin="round"/><path d="M 968.0 563.6 H 976.0 M 970.0 562.8 H 974.0 M 969.2 564.4 L 970.0 571.6 H 974.0 L 974.8 564.4" fill="none" stroke="#FF3B30" stroke-width="1.7" stroke-linecap="round" stroke-linejoin="round"/><line x1="300" y1="624" x2="1060" y2="624" stroke="#DADADA" stroke-width="1"/></svg>