<svg xmlns="http://www.w3.org/2000/svg" width="1280" height="820" viewBox="0 0 1280 820"><defs>
        <filter id="shadowSoft" x="-10%" y="-10%" width="120%" height="130%"><feDropShadow dx="0" dy="8" stdDeviation="14" flood-color="#000000" flood-opacity="0.10"/></filter>
        <filter id="tabShadow" x="-20%" y="-20%" width="140%" height="160%"><feDropShadow dx="0" dy="1" stdDeviation="1" flood-color="#000000" flood-opacity="0.06"/></filter>
        <clipPath id="clipRound"><rect x="0" y="0" width="1" height="1" rx="8"/></clipPath>
        </defs><rect x="0" y="0" width="1280" height="820" fill="#ECECEC"/><rect x="0" y="0" width="260" height="820" fill="#FFFFFF"/><circle cx="28" cy="28" r="8" fill="#FF5F57" stroke="#E04D48" stroke-width="1"/><circle cx="56" cy="28" r="8" fill="#FFBD2E" stroke="#D7A029" stroke-width="1"/><circle cx="84" cy="28" r="8" fill="#28C840" stroke="#25A83B" stroke-width="1"/><line x1="222.8" y1="25.68" x2="237.2" y2="25.68" stroke="#242426" stroke-width="1.6"/><circle cx="233.6" cy="25.68" r="1.44" fill="#FFFFFF" stroke="#242426" stroke-width="1.6"/><line x1="222.8" y1="30.0" x2="237.2" y2="30.0" stroke="#242426" stroke-width="1.6"/><circle cx="226.4" cy="30.0" r="1.44" fill="#FFFFFF" stroke="#242426" stroke-width="1.6"/><line x1="222.8" y1="34.32" x2="237.2" y2="34.32" stroke="#242426" stroke-width="1.6"/><circle cx="231.2" cy="34.32" r="1.44" fill="#FFFFFF" stroke="#242426" stroke-width="1.6"/><rect x="28" y="139" width="6" height="6" rx="1" ry="1" fill="none" stroke="#737376" stroke-width="1.6"/><rect x="28" y="149" width="6" height="6" rx="1" ry="1" fill="none" stroke="#737376" stroke-width="1.6"/><rect x="38" y="139" width="6" height="6" rx="1" ry="1" fill="none" stroke="#737376" stroke-width="1.6"/><rect x="38" y="149" width="6" height="6" rx="1" ry="1" fill="none" stroke="#737376" stroke-width="1.6"/><text x="62" y="152" font-family="-apple-system, BlinkMacSystemFont, 'SF Pro Text', 'Helvetica Neue', Arial, sans-serif" font-size="15" font-weight="500" fill="#737376" text-anchor="start">Dashboard</text><rect x="32.2" y="188.28" width="10.08" height="12.48" rx="2" ry="2" fill="none" stroke="#737376" stroke-width="1.6"/><rect x="29.32" y="191.16" width="10.08" height="12.48" rx="2" ry="2" fill="none" stroke="#737376" stroke-width="1.6"/><text x="62" y="200" font-family="-apple-system, BlinkMacSystemFont, 'SF Pro Text', 'Helvetica Neue', Arial, sans-serif" font-size="15" font-weight="500" fill="#737376" text-anchor="start">Clipboard</text><rect x="30" y="232" width="10" height="18" rx="5" ry="5" fill="none" stroke="#737376" stroke-width="1.6"/><path d="M 25 244 C 25 254 45 254 45 244 M 35 254 V 260" fill="none" stroke="#737376" stroke-width="1.6" stroke-linecap="round" stroke-linejoin="round"/><text x="62" y="248" font-family="-apple-system, BlinkMacSystemFont, 'SF Pro Text', 'Helvetica Neue', Arial, sans-serif" font-size="15" font-weight="500" fill="#737376" text-anchor="start">Voice</text><rect x="16" y="272" width="228" height="38" rx="8" ry="8" fill="#E8E8E8"/><circle cx="37.0" cy="291.0" r="10.8" fill="none" stroke="#242426" stroke-width="1.6"/><path d="M 37.0 285.0 V 293.4 M 33.4 290.52 L 37.0 294.12 L 40.6 290.52" fill="none" stroke="#242426" stroke-width="1.6" stroke-linecap="round" stroke-linejoin="round"/><text x="62" y="296" font-family="-apple-system, BlinkMacSystemFont, 'SF Pro Text', 'Helvetica Neue', Arial, sans-serif" font-size="15" font-weight="500" fill="#242426" text-anchor="start">Downloads</text><path d="M 29.32 336.12 H 35.08 L 37.0 338.52 H 44.68 V 345.24 H 29.32 Z" fill="none" stroke="#737376" stroke-width="1.6" stroke-linecap="round" stroke-linejoin="round"/><text x="62" y="344" font-family="-apple-system, BlinkMacSystemFont, 'SF Pro Text', 'Helvetica Neue', Arial, sans-serif" font-size="15" font-weight="500" fill="#737376" text-anchor="start">Folder Preview</text><line x1="27" y1="380" x2="45" y2="380" stroke="#737376" stroke-width="1.8"/><line x1="27" y1="388" x2="45" y2="388" stroke="#737376" stroke-width="1.8"/><line x1="27" y1="396" x2="45" y2="396" stroke="#737376" stroke-width="1.8"/><text x="62" y="392" font-family="-apple-system, BlinkMacSystemFont, 'SF Pro Text', 'Helvetica Neue', Arial, sans-serif" font-size="15" font-weight="500" fill="#737376" text-anchor="start">Snippets</text><rect x="27" y="426" width="9" height="9" rx="1" ry="1" fill="none" stroke="#737376" stroke-width="1.6"/><rect x="39" y="431" width="9" height="12" rx="1" ry="1" fill="none" stroke="#737376" stroke-width="1.6"/><text x="62" y="440" font-family="-apple-system, BlinkMacSystemFont, 'SF Pro Text', 'Helvetica Neue', Arial, sans-serif" font-size="15" font-weight="500" fill="#737376" text-anchor="start">Window Layouts</text><path d="M 31 491 C 28 483 27 476 31 475 C 33 475 34 479 34 482 V 471 C 34 468 39 468 39 472 V 481 M 39 477 C 43 474 46 478 44 484" fill="none" stroke="#737376" stroke-width="1.6" stroke-linecap="round" stroke-linejoin="round"/><text x="62" y="488" font-family="-apple-system, BlinkMacSystemFont, 'SF Pro Text', 'Helvetica Neue', Arial, sans-serif" font-size="15" font-weight="500" fill="#737376" text-anchor="start">Window Grab</text><line x1="16" y1="748" x2="244" y2="748" stroke="#DADADA" stroke-width="1"/><circle cx="34.0" cy="780.0" r="5.2" fill="none" stroke="#737376" stroke-width="1.5"/><line x1="41.2" y1="780.0" x2="43.0" y2="780.0" stroke="#737376" stroke-width="1.5"/><line x1="39.09116882454314" y1="785.0911688245432" x2="40.36396103067893" y2="786.363961030679" stroke="#737376" stroke-width="1.5"/><line x1="34.0" y1="787.2" x2="34.0" y2="789.0" stroke="#737376" stroke-width="1.5"/><line x1="28.90883117545686" y1="785.0911688245432" x2="27.63603896932107" y2="786.363961030679" stroke="#737376" stroke-width="1.5"/><line x1="26.8" y1="780.0" x2="25.0" y2="780.0" stroke="#737376" stroke-width="1.5"/><line x1="28.908831175456857" y1="774.9088311754568" x2="27.63603896932107" y2="773.636038969321" stroke="#737376" stroke-width="1.5"/><line x1="34.0" y1="772.8" x2="34.0" y2="771.0" stroke="#737376" stroke-width="1.5"/><line x1="39.09116882454314" y1="774.9088311754568" x2="40.36396103067892" y2="773.636038969321" stroke="#737376" stroke-width="1.5"/><text x="58" y="786" font-family="-apple-system, BlinkMacSystemFont, 'SF Pro Text', 'Helvetica Neue', Arial, sans-serif" font-size="14" font-weight="500" fill="#737376" text-anchor="start">Settings</text><line x1="260" y1="0" x2="260" y2="820" stroke="#DADADA" stroke-width="1"/><text x="300" y="88" font-family="-apple-system, BlinkMacSystemFont, 'SF Pro Text', 'Helvetica Neue', Arial, sans-serif" font-size="26" font-weight="700" fill="#242426" text-anchor="start">Downloads</text><text x="300" y="116" font-family="-apple-system, BlinkMacSystemFont, 'SF Pro Text', 'Helvetica Neue', Arial, sans-serif" font-size="15" font-weight="400" fill="#737376" text-anchor="start">Queue media downloads, review results, and tune downloader behavior.</text><rect x="300" y="142" width="334" height="38" rx="19" ry="19" fill="#FFFFFF" stroke="#CACACA" stroke-width="1"/><circle cx="328.0" cy="160.0" r="7.2" fill="none" stroke="#737376" stroke-width="1.6"/><path d="M 328.0 156.0 V 161.6 M 325.6 159.68 L 328.0 162.08 L 330.4 159.68" fill="none" stroke="#737376" stroke-width="1.6" stroke-linecap="round" stroke-linejoin="round"/><text x="342" y="167" font-family="-apple-system, BlinkMacSystemFont, 'SF Pro Text', 'Helvetica Neue', Arial, sans-serif" font-size="14" font-weight="600" fill="#737376" text-anchor="start">Queue</text><circle cx="418.0" cy="160.0" r="7.2" fill="none" stroke="#737376" stroke-width="1.6"/><path d="M 414.8 160.32 L 417.2 162.56 L 421.52 157.6" fill="none" stroke="#737376" stroke-width="1.6" stroke-linecap="round" stroke-linejoin="round"/><text x="432" y="167" font-family="-apple-system, BlinkMacSystemFont, 'SF Pro Text', 'Helvetica Neue', Arial, sans-serif" font-size="14" font-weight="600" fill="#737376" text-anchor="start">Completed</text><rect x="516" y="146" width="114" height="30" rx="15" ry="15" fill="#DEDEDF" stroke="#C7C7C9" stroke-width="1"/><line x1="535.2" y1="157.12" x2="544.8" y2="157.12" stroke="#242426" stroke-width="1.6"/><circle cx="542.4" cy="157.12" r="0.96" fill="#FFFFFF" stroke="#242426" stroke-width="1.6"/><line x1="535.2" y1="160.0" x2="544.8" y2="160.0" stroke="#242426" stroke-width="1.6"/><circle cx="537.6" cy="160.0" r="0.96" fill="#FFFFFF" stroke="#242426" stroke-width="1.6"/><line x1="535.2" y1="162.88" x2="544.8" y2="162.88" stroke="#242426" stroke-width="1.6"/><circle cx="540.8" cy="162.88" r="0.96" fill="#FFFFFF" stroke="#242426" stroke-width="1.6"/><text x="554" y="167" font-family="-apple-system, BlinkMacSystemFont, 'SF Pro Text', 'Helvetica Neue', Arial, sans-serif" font-size="14" font-weight="700" fill="#242426" text-anchor="start">Settings</text><line x1="260" y1="210" x2="1280" y2="210" stroke="#DADADA" stroke-width="1"/><text x="300" y="250" font-family="-apple-system, BlinkMacSystemFont, 'SF Pro Text', 'Helvetica Neue', Arial, sans-serif" font-size="17" font-weight="700" fill="#242426" text-anchor="start">Queue</text><rect x="300" y="268" width="760" height="117" rx="8" ry="8" fill="#FFFFFF" stroke="#E2E2E2" stroke-width="1"/><rect x="300" y="268" width="760" height="58" fill="#FFFFFF"/><text x="314" y="290" font-family="-apple-system, BlinkMacSystemFont, 'SF Pro Text', 'Helvetica Neue', Arial, sans-serif" font-size="14" font-weight="500" fill="#242426" text-anchor="start">Concurrent downloads</text><text x="314" y="310" font-family="-apple-system, BlinkMacSystemFont, 'SF Pro Text', 'Helvetica Neue', Arial, sans-serif" font-size="12" font-weight="400" fill="#737376" text-anchor="start">Choose how many videos can download at the same time, from 1 to 10.</text><rect x="950" y="282.0" width="96" height="30" rx="7" ry="7" fill="#FFFFFF" stroke="#E2E2E2" stroke-width="1"/><text x="998" y="299.5" font-family="-apple-system, BlinkMacSystemFont, 'SF Pro Text', 'Helvetica Neue', Arial, sans-serif" font-size="13" font-weight="500" fill="#242426" text-anchor="middle">3</text><text x="1026" y="299.5" font-family="-apple-system, BlinkMacSystemFont, 'SF Pro Text', 'Helvetica Neue', Arial, sans-serif" font-size="12" font-weight="500" fill="#737376" text-anchor="middle">⌃⌄</text><line x1="314" y1="326" x2="1060" y2="326" stroke="#DADADA" stroke-width="1"/><rect x="300" y="326" width="760" height="58" fill="#FFFFFF"/><text x="314" y="348" font-family="-apple-system, BlinkMacSystemFont, 'SF Pro Text', 'Helvetica Neue', Arial, sans-serif" font-size="14" font-weight="500" fill="#242426" text-anchor="start">Retry interrupted downloads on launch</text><text x="314" y="368" font-family="-apple-system, BlinkMacSystemFont, 'SF Pro Text', 'Helvetica Neue', Arial, sans-serif" font-size="12" font-weight="400" fill="#737376" text-anchor="start">Move interrupted items to Failed so they can be retried explicitly.</text><rect x="1002" y="343.0" width="44" height="24" rx="12" ry="12" fill="#007AFF"/><circle cx="1034" cy="355.0" r="9" fill="#FFFFFF"/><text x="300" y="419" font-family="-apple-system, BlinkMacSystemFont, 'SF Pro Text', 'Helvetica Neue', Arial, sans-serif" font-size="17" font-weight="700" fill="#242426" text-anchor="start">File naming</text><rect x="300" y="437" width="760" height="175" rx="8" ry="8" fill="#FFFFFF" stroke="#E2E2E2" stroke-width="1"/><rect x="300" y="437" width="760" height="58" fill="#FFFFFF"/><text x="314" y="459" font-family="-apple-system, BlinkMacSystemFont, 'SF Pro Text', 'Helvetica Neue', Arial, sans-serif" font-size="14" font-weight="500" fill="#242426" text-anchor="start">Naming style</text><text x="314" y="479" font-family="-apple-system, BlinkMacSystemFont, 'SF Pro Text', 'Helvetica Neue', Arial, sans-serif" font-size="12" font-weight="400" fill="#737376" text-anchor="start">Choose a readable filename format for new downloads.</text><rect x="826" y="451.0" width="220" height="30" rx="7" ry="7" fill="#FFFFFF" stroke="#E2E2E2" stroke-width="1"/><text x="936" y="468.5" font-family="-apple-system, BlinkMacSystemFont, 'SF Pro Text', 'Helvetica Neue', Arial, sans-serif" font-size="13" font-weight="500" fill="#242426" text-anchor="middle">Title + video ID</text><text x="1029" y="468.5" font-family="-apple-system, BlinkMacSystemFont, 'SF Pro Text', 'Helvetica Neue', Arial, sans-serif" font-size="12" font-weight="500" fill="#737376" text-anchor="middle">⌃⌄</text><line x1="314" y1="495" x2="1060" y2="495" stroke="#DADADA" stroke-width="1"/><rect x="300" y="495" width="760" height="58" fill="#FFFFFF"/><text x="314" y="517" font-family="-apple-system, BlinkMacSystemFont, 'SF Pro Text', 'Helvetica Neue', Arial, sans-serif" font-size="14" font-weight="500" fill="#242426" text-anchor="start">Example file name</text><text x="314" y="537" font-family="-apple-system, BlinkMacSystemFont, 'SF Pro Text', 'Helvetica Neue', Arial, sans-serif" font-size="12" font-weight="400" fill="#737376" text-anchor="start">The MOST DISRESPECTFUL... - IwQFzy9kUF.mp4</text><rect x="960" y="509.0" width="86" height="30" rx="7" ry="7" fill="#FFFFFF" stroke="#E2E2E2" stroke-width="1"/><text x="1003.0" y="529.0" font-family="-apple-system, BlinkMacSystemFont, 'SF Pro Text', 'Helvetica Neue', Arial, sans-serif" font-size="13" font-weight="500" fill="#242426" text-anchor="middle">Copy</text><line x1="314" y1="553" x2="1060" y2="553" stroke="#DADADA" stroke-width="1"/><rect x="300" y="553" width="760" height="58" fill="#FFFFFF"/><text x="314" y="575" font-family="-apple-system, BlinkMacSystemFont, 'SF Pro Text', 'Helvetica Neue', Arial, sans-serif" font-size="14" font-weight="500" fill="#242426" text-anchor="start">Download folder</text><text x="314" y="595" font-family="-apple-system, BlinkMacSystemFont, 'SF Pro Text', 'Helvetica Neue', Arial, sans-serif" font-size="12" font-weight="400" fill="#737376" text-anchor="start">/Users/mingjie.wang/Downloads/MacAllYouNeed</text><rect x="960" y="567.0" width="86" height="30" rx="7" ry="7" fill="#FFFFFF" stroke="#E2E2E2" stroke-width="1"/><text x="1003.0" y="587.0" font-family="-apple-system, BlinkMacSystemFont, 'SF Pro Text', 'Helvetica Neue', Arial, sans-serif" font-size="13" font-weight="500" fill="#242426" text-anchor="middle">Change…</text><text x="300" y="646" font-family="-apple-system, BlinkMacSystemFont, 'SF Pro Text', 'Helvetica Neue', Arial, sans-serif" font-size="17" font-weight="700" fill="#242426" text-anchor="start">Downloader</text><rect x="300" y="664" width="760" height="117" rx="8" ry="8" fill="#FFFFFF" stroke="#E2E2E2" stroke-width="1"/><rect x="300" y="664" width="760" height="58" fill="#FFFFFF"/><text x="314" y="686" font-family="-apple-system, BlinkMacSystemFont, 'SF Pro Text', 'Helvetica Neue', Arial, sans-serif" font-size="14" font-weight="500" fill="#242426" text-anchor="start">Cookie profiles</text><text x="314" y="706" font-family="-apple-system, BlinkMacSystemFont, 'SF Pro Text', 'Helvetica Neue', Arial, sans-serif" font-size="12" font-weight="400" fill="#737376" text-anchor="start">Chrome, Edge, Brave, and Chromium profiles are imported before down…</text><rect x="936" y="681.0" width="110" height="24" rx="12" ry="12" fill="#28CD41" stroke="#28CD41" stroke-width="1" opacity="0.12"/><circle cx="948" cy="693.0" r="3.5" fill="#28CD41"/><text x="958" y="697.0" font-family="-apple-system, BlinkMacSystemFont, 'SF Pro Text', 'Helvetica Neue', Arial, sans-serif" font-size="11" font-weight="700" fill="#28CD41" text-anchor="start">READY</text><line x1="314" y1="722" x2="1060" y2="722" stroke="#DADADA" stroke-width="1"/><rect x="300" y="722" width="760" height="58" fill="#FFFFFF"/><text x="314" y="744" font-family="-apple-system, BlinkMacSystemFont, 'SF Pro Text', 'Helvetica Neue', Arial, sans-serif" font-size="14" font-weight="500" fill="#242426" text-anchor="start">Bundled downloader assets</text><text x="314" y="764" font-family="-apple-system, BlinkMacSystemFont, 'SF Pro Text', 'Helvetica Neue', Arial, sans-serif" font-size="12" font-weight="400" fill="#737376" text-anchor="start">yt-dlp, ffmpeg, manifest, architecture, and SHA-256 verification.</text><rect x="960" y="736.0" width="86" height="30" rx="7" ry="7" fill="#FFFFFF" stroke="#E2E2E2" stroke-width="1"/><text x="1003.0" y="756.0" font-family="-apple-system, BlinkMacSystemFont, 'SF Pro Text', 'Helvetica Neue', Arial, sans-serif" font-size="13" font-weight="500" fill="#242426" text-anchor="middle">Check</text></svg>