<svg xmlns="http://www.w3.org/2000/svg" width="620" height="760" viewBox="0 0 620 760"><defs>
        <filter id="shadowSoft" x="-10%" y="-10%" width="120%" height="130%"><feDropShadow dx="0" dy="8" stdDeviation="14" flood-color="#000000" flood-opacity="0.10"/></filter>
        <filter id="tabShadow" x="-20%" y="-20%" width="140%" height="160%"><feDropShadow dx="0" dy="1" stdDeviation="1" flood-color="#000000" flood-opacity="0.06"/></filter>
        <clipPath id="clipRound"><rect x="0" y="0" width="1" height="1" rx="8"/></clipPath>
        </defs><rect x="10" y="10" width="600" height="740" rx="24" ry="24" fill="#FFFFFF" stroke="#CACACA" stroke-width="1"/><text x="38" y="54" font-family="-apple-system, BlinkMacSystemFont, 'SF Pro Text', 'Helvetica Neue', Arial, sans-serif" font-size="24" font-weight="700" fill="#242426" text-anchor="start">Command Center</text><text x="38" y="78" font-family="-apple-system, BlinkMacSystemFont, 'SF Pro Text', 'Helvetica Neue', Arial, sans-serif" font-size="15" font-weight="600" fill="#737376" text-anchor="start">Mac All You Need</text><circle cx="568" cy="54" r="27" fill="#F4F4F4"/><circle cx="568.0" cy="54.0" r="6.24" fill="none" stroke="#737376" stroke-width="1.8"/><line x1="576.64" y1="54.0" x2="578.8" y2="54.0" stroke="#737376" stroke-width="1.8"/><line x1="574.1094025894517" y1="60.10940258945177" x2="575.6367532368147" y2="61.63675323681471" stroke="#737376" stroke-width="1.8"/><line x1="568.0" y1="62.64" x2="568.0" y2="64.8" stroke="#737376" stroke-width="1.8"/><line x1="561.8905974105483" y1="60.10940258945177" x2="560.3632467631853" y2="61.63675323681471" stroke="#737376" stroke-width="1.8"/><line x1="559.36" y1="54.0" x2="557.2" y2="54.0" stroke="#737376" stroke-width="1.8"/><line x1="561.8905974105483" y1="47.89059741054823" x2="560.3632467631853" y2="46.36324676318529" stroke="#737376" stroke-width="1.8"/><line x1="568.0" y1="45.36" x2="568.0" y2="43.2" stroke="#737376" stroke-width="1.8"/><line x1="574.1094025894517" y1="47.890597410548224" x2="575.6367532368147" y2="46.36324676318529" stroke="#737376" stroke-width="1.8"/><rect x="38" y="104" width="456" height="38" rx="19" ry="19" fill="#FFFFFF" stroke="#CACACA" stroke-width="1"/><rect x="62.8" y="117.52" width="6.72" height="8.32" rx="2" ry="2" fill="none" stroke="#737376" stroke-width="1.6"/><rect x="60.88" y="119.44" width="6.72" height="8.32" rx="2" ry="2" fill="none" stroke="#737376" stroke-width="1.6"/><text x="80" y="129" font-family="-apple-system, BlinkMacSystemFont, 'SF Pro Text', 'Helvetica Neue', Arial, sans-serif" font-size="14" font-weight="600" fill="#737376" text-anchor="start">Clipboard</text><circle cx="188.0" cy="122.0" r="6.72" fill="none" stroke="#737376" stroke-width="1.6"/><path d="M 188.0 122.0 V 119.6 M 188.0 122.0 L 190.4 123.6" fill="none" stroke="#737376" stroke-width="1.6" stroke-linecap="round" stroke-linejoin="round"/><text x="202" y="129" font-family="-apple-system, BlinkMacSystemFont, 'SF Pro Text', 'Helvetica Neue', Arial, sans-serif" font-size="14" font-weight="600" fill="#737376" text-anchor="start">Voice</text><rect x="254" y="108" width="122" height="30" rx="15" ry="15" fill="#DEDEDF" stroke="#C7C7C9" stroke-width="1"/><circle cx="278.0" cy="122.0" r="7.2" fill="none" stroke="#242426" stroke-width="1.6"/><path d="M 278.0 118.0 V 123.6 M 275.6 121.68 L 278.0 124.08 L 280.4 121.68" fill="none" stroke="#242426" stroke-width="1.6" stroke-linecap="round" stroke-linejoin="round"/><text x="292" y="129" font-family="-apple-system, BlinkMacSystemFont, 'SF Pro Text', 'Helvetica Neue', Arial, sans-serif" font-size="14" font-weight="700" fill="#242426" text-anchor="start">Downloads</text><line x1="395.2" y1="119.12" x2="404.8" y2="119.12" stroke="#737376" stroke-width="1.6"/><circle cx="402.4" cy="119.12" r="0.96" fill="#FFFFFF" stroke="#737376" stroke-width="1.6"/><line x1="395.2" y1="122.0" x2="404.8" y2="122.0" stroke="#737376" stroke-width="1.6"/><circle cx="397.6" cy="122.0" r="0.96" fill="#FFFFFF" stroke="#737376" stroke-width="1.6"/><line x1="395.2" y1="124.88" x2="404.8" y2="124.88" stroke="#737376" stroke-width="1.6"/><circle cx="400.8" cy="124.88" r="0.96" fill="#FFFFFF" stroke="#737376" stroke-width="1.6"/><text x="414" y="129" font-family="-apple-system, BlinkMacSystemFont, 'SF Pro Text', 'Helvetica Neue', Arial, sans-serif" font-size="14" font-weight="600" fill="#737376" text-anchor="start">Snippets</text><line x1="10" y1="166" x2="610" y2="166" stroke="#DADADA" stroke-width="1"/><text x="38" y="204" font-family="-apple-system, BlinkMacSystemFont, 'SF Pro Text', 'Helvetica Neue', Arial, sans-serif" font-size="19" font-weight="700" fill="#242426" text-anchor="start">Downloads</text><rect x="145" y="184" width="28" height="28" rx="14" ry="14" fill="#F4F4F4" stroke="#E2E2E2" stroke-width="1"/><text x="159" y="204" font-family="-apple-system, BlinkMacSystemFont, 'SF Pro Text', 'Helvetica Neue', Arial, sans-serif" font-size="13" font-weight="700" fill="#737376" text-anchor="middle">2</text><path d="M 579.0 189.5 V 200.5 M 573.5 195.0 H 584.5" fill="none" stroke="#737376" stroke-width="1.8" stroke-linecap="round" stroke-linejoin="round"/><line x1="10" y1="228" x2="610" y2="228" stroke="#DADADA" stroke-width="1"/><rect x="38" y="252" width="82" height="48" rx="8" ry="8" fill="#ECECEC" stroke="#E2E2E2" stroke-width="1"/><rect x="39" y="253" width="80" height="46" rx="7" ry="7" fill="#6F7378" opacity="0.25"/><circle cx="56" cy="268" r="10" fill="#6F7378" opacity="0.28"/><rect x="72" y="264" width="34" height="8" rx="4" ry="4" fill="#6F7378" opacity="0.35"/><rect x="50" y="284" width="48" height="5" rx="3" ry="3" fill="#6F7378" opacity="0.35"/><circle cx="79.0" cy="276.0" r="12" fill="#000000" opacity="0.32"/><path d="M 75.0 269.0 L 86.0 276.0 L 75.0 283.0 Z" fill="#FFFFFF" opacity="0.88"/><rect x="138" y="250" width="96" height="24" rx="12" ry="12" fill="#FF9500" stroke="#FF9500" stroke-width="1" opacity="0.12"/><circle cx="150" cy="262" r="3.5" fill="#FF9500"/><text x="160" y="266" font-family="-apple-system, BlinkMacSystemFont, 'SF Pro Text', 'Helvetica Neue', Arial, sans-serif" font-size="11" font-weight="700" fill="#FF9500" text-anchor="start">PAUSED</text><text x="244" y="268" font-family="-apple-system, BlinkMacSystemFont, 'SF Pro Text', 'Helvetica Neue', Arial, sans-serif" font-size="16" font-weight="700" fill="#242426" text-anchor="start">The MOST DISRESPECTFUL &amp; BRUTAL A…</text><text x="138" y="296" font-family="-apple-system, BlinkMacSystemFont, 'SF Pro Text', 'Helvetica Neue', Arial, sans-serif" font-size="13" font-weight="400" fill="#737376" text-anchor="start">The Next Chapter · 36:29</text><rect x="138" y="310" width="414" height="3" rx="1.5" ry="1.5" fill="#DADADA"/><rect x="138" y="310" width="128.34" height="3" rx="1.5" ry="1.5" fill="#FF9500"/><text x="138" y="334" font-family="-apple-system, BlinkMacSystemFont, 'SF Pro Text', 'Helvetica Neue', Arial, sans-serif" font-size="13" font-weight="400" fill="#737376" text-anchor="start">Paused</text><path d="M 535.92 266.94 L 543.84 272.0 L 535.92 277.06 Z" fill="#FF9500"/><path d="M 568.6 269.36 H 577.4 M 570.8 268.48 H 575.2 M 569.92 270.24 L 570.8 278.16 H 575.2 L 576.08 270.24" fill="none" stroke="#FF3B30" stroke-width="1.8" stroke-linecap="round" stroke-linejoin="round"/><line x1="10" y1="348" x2="610" y2="348" stroke="#DADADA" stroke-width="1"/><rect x="38" y="350" width="82" height="48" rx="8" ry="8" fill="#ECECEC" stroke="#E2E2E2" stroke-width="1"/><rect x="39" y="351" width="80" height="46" rx="7" ry="7" fill="#6F7378" opacity="0.25"/><circle cx="56" cy="366" r="10" fill="#6F7378" opacity="0.28"/><rect x="72" y="362" width="34" height="8" rx="4" ry="4" fill="#6F7378" opacity="0.35"/><rect x="50" y="382" width="48" height="5" rx="3" ry="3" fill="#6F7378" opacity="0.35"/><circle cx="79.0" cy="374.0" r="12" fill="#000000" opacity="0.32"/><path d="M 75.0 367.0 L 86.0 374.0 L 75.0 381.0 Z" fill="#FFFFFF" opacity="0.88"/><rect x="138" y="348" width="78" height="24" rx="12" ry="12" fill="#28CD41" stroke="#28CD41" stroke-width="1" opacity="0.12"/><circle cx="150" cy="360" r="3.5" fill="#28CD41"/><text x="160" y="364" font-family="-apple-system, BlinkMacSystemFont, 'SF Pro Text', 'Helvetica Neue', Arial, sans-serif" font-size="11" font-weight="700" fill="#28CD41" text-anchor="start">DONE</text><text x="226" y="366" font-family="-apple-system, BlinkMacSystemFont, 'SF Pro Text', 'Helvetica Neue', Arial, sans-serif" font-size="16" font-weight="700" fill="#242426" text-anchor="start">Bilibili limited-public course: s…</text><text x="138" y="394" font-family="-apple-system, BlinkMacSystemFont, 'SF Pro Text', 'Helvetica Neue', Arial, sans-serif" font-size="13" font-weight="400" fill="#737376" text-anchor="start">Course Notes Channel · 25:55</text><rect x="138" y="408" width="414" height="3" rx="1.5" ry="1.5" fill="#DADADA"/><rect x="138" y="408" width="414.0" height="3" rx="1.5" ry="1.5" fill="#28CD41"/><text x="138" y="432" font-family="-apple-system, BlinkMacSystemFont, 'SF Pro Text', 'Helvetica Neue', Arial, sans-serif" font-size="13" font-weight="400" fill="#737376" text-anchor="start">Completed</text><path d="M 531.96 367.36 H 537.24 L 539.0 369.56 H 546.04 V 375.72 H 531.96 Z" fill="none" stroke="#737376" stroke-width="1.8" stroke-linecap="round" stroke-linejoin="round"/><path d="M 568.6 367.36 H 577.4 M 570.8 366.48 H 575.2 M 569.92 368.24 L 570.8 376.16 H 575.2 L 576.08 368.24" fill="none" stroke="#FF3B30" stroke-width="1.8" stroke-linecap="round" stroke-linejoin="round"/><line x1="10" y1="446" x2="610" y2="446" stroke="#DADADA" stroke-width="1"/><line x1="10" y1="700" x2="610" y2="700" stroke="#DADADA" stroke-width="1"/><text x="38" y="728" font-family="-apple-system, BlinkMacSystemFont, 'SF Pro Text', 'Helvetica Neue', Arial, sans-serif" font-size="14" font-weight="500" fill="#737376" text-anchor="start">download queue</text><rect x="388" y="714" width="140" height="30" rx="7" ry="7" fill="#FFFFFF" stroke="#E2E2E2" stroke-width="1"/><text x="458.0" y="734" font-family="-apple-system, BlinkMacSystemFont, 'SF Pro Text', 'Helvetica Neue', Arial, sans-serif" font-size="13" font-weight="500" fill="#242426" text-anchor="middle">Open Downloads</text><rect x="538" y="714" width="50" height="30" rx="7" ry="7" fill="#FFFFFF" stroke="#E2E2E2" stroke-width="1"/><text x="563.0" y="734" font-family="-apple-system, BlinkMacSystemFont, 'SF Pro Text', 'Helvetica Neue', Arial, sans-serif" font-size="13" font-weight="500" fill="#FF3B30" text-anchor="middle">Quit</text></svg>