<svg xmlns="http://www.w3.org/2000/svg" width="760" height="520" viewBox="0 0 760 520"><defs>
        <filter id="shadowSoft" x="-10%" y="-10%" width="120%" height="130%"><feDropShadow dx="0" dy="8" stdDeviation="14" flood-color="#000000" flood-opacity="0.10"/></filter>
        <filter id="tabShadow" x="-20%" y="-20%" width="140%" height="160%"><feDropShadow dx="0" dy="1" stdDeviation="1" flood-color="#000000" flood-opacity="0.06"/></filter>
        <clipPath id="clipRound"><rect x="0" y="0" width="1" height="1" rx="8"/></clipPath>
        </defs><rect x="0" y="0" width="760" height="520" fill="#ECECEC"/><rect x="86" y="70" width="588" height="380" rx="18" ry="18" fill="#FFFFFF" stroke="#CACACA" stroke-width="1"/><text x="126" y="122" font-family="-apple-system, BlinkMacSystemFont, 'SF Pro Text', 'Helvetica Neue', Arial, sans-serif" font-size="24" font-weight="700" fill="#242426" text-anchor="start">Add download URL</text><text x="126" y="148" font-family="-apple-system, BlinkMacSystemFont, 'SF Pro Text', 'Helvetica Neue', Arial, sans-serif" font-size="14" font-weight="400" fill="#737376" text-anchor="start">Paste one or more video/audio URLs. Metadata is fetched before the download starts.</text><rect x="126" y="180" width="508" height="84" rx="8" ry="8" fill="#FFFFFF" stroke="#E2E2E2" stroke-width="1"/><path d="M 150.6 208.0 C 148.0 208.0 148.0 204.6 150.6 204.6 H 153.4 M 154.6 211.4 H 157.4 C 160.0 211.4 160.0 208.0 157.4 208.0 M 152.4 208.0 H 155.6" fill="none" stroke="#737376" stroke-width="1.8" stroke-linecap="round" stroke-linejoin="round"/><text x="176" y="213" font-family="-apple-system, BlinkMacSystemFont, 'SF Pro Text', 'Helvetica Neue', Arial, sans-serif" font-size="14" font-weight="400" fill="#242426" text-anchor="start">https://www.youtube.com/watch?v=IwQFzy9kUFw</text><line x1="126" y1="230" x2="634" y2="230" stroke="#DADADA" stroke-width="1"/><text x="144" y="250" font-family="-apple-system, BlinkMacSystemFont, 'SF Pro Text', 'Helvetica Neue', Arial, sans-serif" font-size="12" font-weight="400" fill="#737376" text-anchor="start">⌘V also works in the Downloads panel. Browser extension posts use the same queue path.</text><rect x="126" y="286" width="508" height="76" rx="8" ry="8" fill="#F4F4F4" stroke="#E2E2E2" stroke-width="1"/><rect x="146" y="302" width="82" height="24" rx="12" ry="12" fill="#28CD41" stroke="#28CD41" stroke-width="1" opacity="0.12"/><circle cx="158" cy="314" r="3.5" fill="#28CD41"/><text x="168" y="318" font-family="-apple-system, BlinkMacSystemFont, 'SF Pro Text', 'Helvetica Neue', Arial, sans-serif" font-size="11" font-weight="700" fill="#28CD41" text-anchor="start">READY</text><text x="238" y="319" font-family="-apple-system, BlinkMacSystemFont, 'SF Pro Text', 'Helvetica Neue', Arial, sans-serif" font-size="14" font-weight="600" fill="#242426" text-anchor="start">Metadata will appear immediately after enqueue.</text><text x="238" y="342" font-family="-apple-system, BlinkMacSystemFont, 'SF Pro Text', 'Helvetica Neue', Arial, sans-serif" font-size="12" font-weight="400" fill="#737376" text-anchor="start">Cookies: Chrome profile available · Output: Downloads/MacAllYouNeed</text><rect x="438" y="390" width="82" height="30" rx="7" ry="7" fill="#FFFFFF" stroke="#E2E2E2" stroke-width="1"/><text x="479.0" y="410" font-family="-apple-system, BlinkMacSystemFont, 'SF Pro Text', 'Helvetica Neue', Arial, sans-serif" font-size="13" font-weight="500" fill="#242426" text-anchor="middle">Cancel</text><rect x="530" y="390" width="104" height="30" rx="7" ry="7" fill="#242426" stroke="#242426" stroke-width="1"/><text x="582.0" y="410" font-family="-apple-system, BlinkMacSystemFont, 'SF Pro Text', 'Helvetica Neue', Arial, sans-serif" font-size="13" font-weight="600" fill="#FFFFFF" text-anchor="middle">Download</text></svg>