<svg xmlns="http://www.w3.org/2000/svg" width="1280" height="820" viewBox="0 0 1280 820"><defs>
        <filter id="shadowSoft" x="-10%" y="-10%" width="120%" height="130%"><feDropShadow dx="0" dy="8" stdDeviation="14" flood-color="#000000" flood-opacity="0.10"/></filter>
        <filter id="tabShadow" x="-20%" y="-20%" width="140%" height="160%"><feDropShadow dx="0" dy="1" stdDeviation="1" flood-color="#000000" flood-opacity="0.06"/></filter>
        <clipPath id="clipRound"><rect x="0" y="0" width="1" height="1" rx="8"/></clipPath>
        </defs><rect x="0" y="0" width="1280" height="820" fill="#ECECEC"/><text x="70" y="78" font-family="-apple-system, BlinkMacSystemFont, 'SF Pro Text', 'Helvetica Neue', Arial, sans-serif" font-size="26" font-weight="700" fill="#242426" text-anchor="start">Downloads UI component sheet</text><text x="70" y="106" font-family="-apple-system, BlinkMacSystemFont, 'SF Pro Text', 'Helvetica Neue', Arial, sans-serif" font-size="14" font-weight="400" fill="#737376" text-anchor="start">Compliant with design.md: FunctionPageShell, MAYNButton, MAYNTextField, FunctionSegmentedTabStrip, StatusPill, and tokenized rows.</text><text x="70" y="160" font-family="-apple-system, BlinkMacSystemFont, 'SF Pro Text', 'Helvetica Neue', Arial, sans-serif" font-size="17" font-weight="700" fill="#242426" text-anchor="start">FunctionSegmentedTabStrip</text><rect x="70" y="180" width="334" height="38" rx="19" ry="19" fill="#FFFFFF" stroke="#CACACA" stroke-width="1"/><rect x="74" y="184" width="90" height="30" rx="15" ry="15" fill="#DEDEDF" stroke="#C7C7C9" stroke-width="1"/><circle cx="98.0" cy="198.0" r="7.2" fill="none" stroke="#242426" stroke-width="1.6"/><path d="M 98.0 194.0 V 199.6 M 95.6 197.68 L 98.0 200.08 L 100.4 197.68" fill="none" stroke="#242426" stroke-width="1.6" stroke-linecap="round" stroke-linejoin="round"/><text x="112" y="205" font-family="-apple-system, BlinkMacSystemFont, 'SF Pro Text', 'Helvetica Neue', Arial, sans-serif" font-size="14" font-weight="700" fill="#242426" text-anchor="start">Queue</text><circle cx="188.0" cy="198.0" r="7.2" fill="none" stroke="#737376" stroke-width="1.6"/><path d="M 184.8 198.32 L 187.2 200.56 L 191.52 195.6" fill="none" stroke="#737376" stroke-width="1.6" stroke-linecap="round" stroke-linejoin="round"/><text x="202" y="205" font-family="-apple-system, BlinkMacSystemFont, 'SF Pro Text', 'Helvetica Neue', Arial, sans-serif" font-size="14" font-weight="600" fill="#737376" text-anchor="start">Completed</text><line x1="305.2" y1="195.12" x2="314.8" y2="195.12" stroke="#737376" stroke-width="1.6"/><circle cx="312.4" cy="195.12" r="0.96" fill="#FFFFFF" stroke="#737376" stroke-width="1.6"/><line x1="305.2" y1="198.0" x2="314.8" y2="198.0" stroke="#737376" stroke-width="1.6"/><circle cx="307.6" cy="198.0" r="0.96" fill="#FFFFFF" stroke="#737376" stroke-width="1.6"/><line x1="305.2" y1="200.88" x2="314.8" y2="200.88" stroke="#737376" stroke-width="1.6"/><circle cx="310.8" cy="200.88" r="0.96" fill="#FFFFFF" stroke="#737376" stroke-width="1.6"/><text x="324" y="205" font-family="-apple-system, BlinkMacSystemFont, 'SF Pro Text', 'Helvetica Neue', Arial, sans-serif" font-size="14" font-weight="600" fill="#737376" text-anchor="start">Settings</text><text x="70" y="270" font-family="-apple-system, BlinkMacSystemFont, 'SF Pro Text', 'Helvetica Neue', Arial, sans-serif" font-size="17" font-weight="700" fill="#242426" text-anchor="start">MAYNButton</text><rect x="70" y="292" width="96" height="30" rx="7" ry="7" fill="#242426" stroke="#242426" stroke-width="1"/><text x="118.0" y="312" font-family="-apple-system, BlinkMacSystemFont, 'SF Pro Text', 'Helvetica Neue', Arial, sans-serif" font-size="13" font-weight="600" fill="#FFFFFF" text-anchor="middle">Primary</text><rect x="178" y="292" width="104" height="30" rx="7" ry="7" fill="#FFFFFF" stroke="#E2E2E2" stroke-width="1"/><text x="230.0" y="312" font-family="-apple-system, BlinkMacSystemFont, 'SF Pro Text', 'Helvetica Neue', Arial, sans-serif" font-size="13" font-weight="500" fill="#242426" text-anchor="middle">Secondary</text><rect x="294" y="292" width="86" height="30" rx="7" ry="7" fill="#FFFFFF" stroke="#E2E2E2" stroke-width="1"/><text x="337.0" y="312" font-family="-apple-system, BlinkMacSystemFont, 'SF Pro Text', 'Helvetica Neue', Arial, sans-serif" font-size="13" font-weight="500" fill="#FF3B30" text-anchor="middle">Delete</text><text x="70" y="380" font-family="-apple-system, BlinkMacSystemFont, 'SF Pro Text', 'Helvetica Neue', Arial, sans-serif" font-size="17" font-weight="700" fill="#242426" text-anchor="start">StatusPill</text><rect x="70" y="402" width="107.2" height="24" rx="12" ry="12" fill="#007AFF" stroke="#007AFF" stroke-width="1" opacity="0.12"/><circle cx="82" cy="414" r="3.5" fill="#007AFF"/><text x="92" y="418" font-family="-apple-system, BlinkMacSystemFont, 'SF Pro Text', 'Helvetica Neue', Arial, sans-serif" font-size="11" font-weight="700" fill="#007AFF" text-anchor="start">DOWNLOADING</text><rect x="189.2" y="402" width="71.2" height="24" rx="12" ry="12" fill="#737376" stroke="#737376" stroke-width="1" opacity="0.12"/><circle cx="201.2" cy="414" r="3.5" fill="#737376"/><text x="211.2" y="418" font-family="-apple-system, BlinkMacSystemFont, 'SF Pro Text', 'Helvetica Neue', Arial, sans-serif" font-size="11" font-weight="700" fill="#737376" text-anchor="start">QUEUED</text><rect x="272.4" y="402" width="71.2" height="24" rx="12" ry="12" fill="#FF9500" stroke="#FF9500" stroke-width="1" opacity="0.12"/><circle cx="284.4" cy="414" r="3.5" fill="#FF9500"/><text x="294.4" y="418" font-family="-apple-system, BlinkMacSystemFont, 'SF Pro Text', 'Helvetica Neue', Arial, sans-serif" font-size="11" font-weight="700" fill="#FF9500" text-anchor="start">PAUSED</text><rect x="355.59999999999997" y="402" width="71.2" height="24" rx="12" ry="12" fill="#FF3B30" stroke="#FF3B30" stroke-width="1" opacity="0.12"/><circle cx="367.59999999999997" cy="414" r="3.5" fill="#FF3B30"/><text x="377.59999999999997" y="418" font-family="-apple-system, BlinkMacSystemFont, 'SF Pro Text', 'Helvetica Neue', Arial, sans-serif" font-size="11" font-weight="700" fill="#FF3B30" text-anchor="start">FAILED</text><rect x="438.79999999999995" y="402" width="56.8" height="24" rx="12" ry="12" fill="#28CD41" stroke="#28CD41" stroke-width="1" opacity="0.12"/><circle cx="450.79999999999995" cy="414" r="3.5" fill="#28CD41"/><text x="460.79999999999995" y="418" font-family="-apple-system, BlinkMacSystemFont, 'SF Pro Text', 'Helvetica Neue', Arial, sans-serif" font-size="11" font-weight="700" fill="#28CD41" text-anchor="start">DONE</text><text x="70" y="492" font-family="-apple-system, BlinkMacSystemFont, 'SF Pro Text', 'Helvetica Neue', Arial, sans-serif" font-size="17" font-weight="700" fill="#242426" text-anchor="start">URL input composition</text><rect x="70" y="514" width="520" height="30" rx="7" ry="7" fill="#FFFFFF" stroke="#E2E2E2" stroke-width="1"/><path d="M 87.28 529.0 C 85.2 529.0 85.2 526.28 87.28 526.28 H 89.52 M 90.48 531.72 H 92.72 C 94.8 531.72 94.8 529.0 92.72 529.0 M 88.72 529.0 H 91.28" fill="none" stroke="#737376" stroke-width="1.6" stroke-linecap="round" stroke-linejoin="round"/><text x="108" y="534" font-family="-apple-system, BlinkMacSystemFont, 'SF Pro Text', 'Helvetica Neue', Arial, sans-serif" font-size="13" font-weight="400" fill="#737376" text-anchor="start">https://www.youtube.com/watch?v=...</text><rect x="602" y="514" width="96" height="30" rx="7" ry="7" fill="#242426" stroke="#242426" stroke-width="1"/><text x="650.0" y="534" font-family="-apple-system, BlinkMacSystemFont, 'SF Pro Text', 'Helvetica Neue', Arial, sans-serif" font-size="13" font-weight="600" fill="#FFFFFF" text-anchor="middle">Download</text><text x="720" y="160" font-family="-apple-system, BlinkMacSystemFont, 'SF Pro Text', 'Helvetica Neue', Arial, sans-serif" font-size="17" font-weight="700" fill="#242426" text-anchor="start">DownloadJobRow</text><rect x="720" y="180" width="480" height="252" rx="8" ry="8" fill="#FFFFFF" stroke="#E2E2E2" stroke-width="1"/><rect x="720" y="180" width="480" height="100" fill="#FFFFFF"/><rect x="734" y="202" width="82" height="48" rx="8" ry="8" fill="#ECECEC" stroke="#E2E2E2" stroke-width="1"/><rect x="735" y="203" width="80" height="46" rx="7" ry="7" fill="#6F7378" opacity="0.25"/><circle cx="752" cy="218" r="10" fill="#6F7378" opacity="0.28"/><rect x="768" y="214" width="34" height="8" rx="4" ry="4" fill="#6F7378" opacity="0.35"/><rect x="746" y="234" width="48" height="5" rx="3" ry="3" fill="#6F7378" opacity="0.35"/><circle cx="775.0" cy="226.0" r="12" fill="#000000" opacity="0.32"/><path d="M 771.0 219.0 L 782.0 226.0 L 771.0 233.0 Z" fill="#FFFFFF" opacity="0.88"/><rect x="832" y="198" width="107.2" height="24" rx="12" ry="12" fill="#007AFF" stroke="#007AFF" stroke-width="1" opacity="0.12"/><circle cx="844" cy="210" r="3.5" fill="#007AFF"/><text x="854" y="214" font-family="-apple-system, BlinkMacSystemFont, 'SF Pro Text', 'Helvetica Neue', Arial, sans-serif" font-size="11" font-weight="700" fill="#007AFF" text-anchor="start">DOWNLOADING</text><text x="951.2" y="215" font-family="-apple-system, BlinkMacSystemFont, 'SF Pro Text', 'Helvetica Neue', Arial, sans-serif" font-size="16" font-weight="700" fill="#242426" text-anchor="start">The MOST DIS…</text><text x="832" y="240" font-family="-apple-system, BlinkMacSystemFont, 'SF Pro Text', 'Helvetica Neue', Arial, sans-serif" font-size="13" font-weight="400" fill="#737376" text-anchor="start">The Next Chapter · 36:29</text><rect x="832" y="253" width="280" height="3" rx="1.5" ry="1.5" fill="#DADADA"/><rect x="832" y="253" width="117.6" height="3" rx="1.5" ry="1.5" fill="#007AFF"/><text x="832" y="273" font-family="-apple-system, BlinkMacSystemFont, 'SF Pro Text', 'Helvetica Neue', Arial, sans-serif" font-size="13" font-weight="400" fill="#737376" text-anchor="start">Downloading video · 14.2…</text><text x="1050" y="273" font-family="-apple-system, BlinkMacSystemFont, 'SF Pro Text', 'Helvetica Neue', Arial, sans-serif" font-size="13" font-weight="400" fill="#A6A6AA" text-anchor="start">ETA 1:02</text><line x1="1075.6" y1="218.0" x2="1075.6" y2="226.0" stroke="#737376" stroke-width="2.1"/><line x1="1080.4" y1="218.0" x2="1080.4" y2="226.0" stroke="#737376" stroke-width="2.1"/><path d="M 1108.0 219.6 H 1116.0 M 1110.0 218.8 H 1114.0 M 1109.2 220.4 L 1110.0 227.6 H 1114.0 L 1114.8 220.4" fill="none" stroke="#FF3B30" stroke-width="1.7" stroke-linecap="round" stroke-linejoin="round"/><line x1="720" y1="280" x2="1200" y2="280" stroke="#DADADA" stroke-width="1"/><rect x="720" y="280" width="480" height="156" fill="#FFFFFF"/><rect x="734" y="302" width="82" height="48" rx="8" ry="8" fill="#ECECEC" stroke="#E2E2E2" stroke-width="1"/><rect x="735" y="303" width="80" height="46" rx="7" ry="7" fill="#6F7378" opacity="0.25"/><circle cx="752" cy="318" r="10" fill="#6F7378" opacity="0.28"/><rect x="768" y="314" width="34" height="8" rx="4" ry="4" fill="#6F7378" opacity="0.35"/><rect x="746" y="334" width="48" height="5" rx="3" ry="3" fill="#6F7378" opacity="0.35"/><circle cx="775.0" cy="326.0" r="12" fill="#000000" opacity="0.32"/><path d="M 771.0 319.0 L 782.0 326.0 L 771.0 333.0 Z" fill="#FFFFFF" opacity="0.88"/><rect x="832" y="298" width="71.2" height="24" rx="12" ry="12" fill="#FF3B30" stroke="#FF3B30" stroke-width="1" opacity="0.12"/><circle cx="844" cy="310" r="3.5" fill="#FF3B30"/><text x="854" y="314" font-family="-apple-system, BlinkMacSystemFont, 'SF Pro Text', 'Helvetica Neue', Arial, sans-serif" font-size="11" font-weight="700" fill="#FF3B30" text-anchor="start">FAILED</text><text x="915.2" y="315" font-family="-apple-system, BlinkMacSystemFont, 'SF Pro Text', 'Helvetica Neue', Arial, sans-serif" font-size="16" font-weight="700" fill="#242426" text-anchor="start">Bilibili member-o…</text><text x="832" y="340" font-family="-apple-system, BlinkMacSystemFont, 'SF Pro Text', 'Helvetica Neue', Arial, sans-serif" font-size="13" font-weight="400" fill="#737376" text-anchor="start">Creator Channel · 01:12:04</text><rect x="832" y="353" width="280" height="3" rx="1.5" ry="1.5" fill="#DADADA"/><rect x="832" y="353" width="33.6" height="3" rx="1.5" ry="1.5" fill="#FF3B30"/><text x="832" y="373" font-family="-apple-system, BlinkMacSystemFont, 'SF Pro Text', 'Helvetica Neue', Arial, sans-serif" font-size="13" font-weight="400" fill="#737376" text-anchor="start">Failed during extractor …</text><path d="M 1075.2 317.4 L 1082.4 322.0 L 1075.2 326.6 Z" fill="#737376"/><path d="M 1108.0 319.6 H 1116.0 M 1110.0 318.8 H 1114.0 M 1109.2 320.4 L 1110.0 327.6 H 1114.0 L 1114.8 320.4" fill="none" stroke="#FF3B30" stroke-width="1.7" stroke-linecap="round" stroke-linejoin="round"/><rect x="832" y="384" width="338" height="36" rx="7" ry="7" fill="#F4F4F4" stroke="#E2E2E2" stroke-width="1"/><rect x="832" y="384" width="3" height="36" rx="1.5" ry="1.5" fill="#FF3B30"/><text x="846" y="408" font-family="-apple-system, BlinkMacSystemFont, 'SF Pro Text', 'Helvetica Neue', Arial, sans-serif" font-size="12" font-weight="400" fill="#737376" text-anchor="start">ERROR: Unable to extract video data; cook…</text><rect x="1078" y="389" width="80" height="30" rx="7" ry="7" fill="#FFFFFF" stroke="#E2E2E2" stroke-width="1"/><text x="1118.0" y="409" font-family="-apple-system, BlinkMacSystemFont, 'SF Pro Text', 'Helvetica Neue', Arial, sans-serif" font-size="13" font-weight="500" fill="#242426" text-anchor="middle">Retry</text><line x1="720" y1="436" x2="1200" y2="436" stroke="#DADADA" stroke-width="1"/><text x="720" y="492" font-family="-apple-system, BlinkMacSystemFont, 'SF Pro Text', 'Helvetica Neue', Arial, sans-serif" font-size="17" font-weight="700" fill="#242426" text-anchor="start">Semantic tokens only</text><rect x="720" y="514" width="108" height="46" rx="8" ry="8" fill="#FFFFFF" stroke="#E2E2E2" stroke-width="1"/><rect x="730" y="524" width="24" height="24" rx="5" ry="5" fill="#ECECEC" stroke="#E2E2E2" stroke-width="1"/><text x="762" y="541" font-family="-apple-system, BlinkMacSystemFont, 'SF Pro Text', 'Helvetica Neue', Arial, sans-serif" font-size="12" font-weight="600" fill="#737376" text-anchor="start">window</text><rect x="838" y="514" width="108" height="46" rx="8" ry="8" fill="#FFFFFF" stroke="#E2E2E2" stroke-width="1"/><rect x="848" y="524" width="24" height="24" rx="5" ry="5" fill="#FFFFFF" stroke="#E2E2E2" stroke-width="1"/><text x="880" y="541" font-family="-apple-system, BlinkMacSystemFont, 'SF Pro Text', 'Helvetica Neue', Arial, sans-serif" font-size="12" font-weight="600" fill="#737376" text-anchor="start">panel</text><rect x="956" y="514" width="108" height="46" rx="8" ry="8" fill="#FFFFFF" stroke="#E2E2E2" stroke-width="1"/><rect x="966" y="524" width="24" height="24" rx="5" ry="5" fill="#DADADA" stroke="#E2E2E2" stroke-width="1"/><text x="998" y="541" font-family="-apple-system, BlinkMacSystemFont, 'SF Pro Text', 'Helvetica Neue', Arial, sans-serif" font-size="12" font-weight="600" fill="#737376" text-anchor="start">divider</text><rect x="1074" y="514" width="108" height="46" rx="8" ry="8" fill="#FFFFFF" stroke="#E2E2E2" stroke-width="1"/><rect x="1084" y="524" width="24" height="24" rx="5" ry="5" fill="#007AFF" stroke="#E2E2E2" stroke-width="1"/><text x="1116" y="541" font-family="-apple-system, BlinkMacSystemFont, 'SF Pro Text', 'Helvetica Neue', Arial, sans-serif" font-size="12" font-weight="600" fill="#737376" text-anchor="start">progress</text><rect x="720" y="572" width="108" height="46" rx="8" ry="8" fill="#FFFFFF" stroke="#E2E2E2" stroke-width="1"/><rect x="730" y="582" width="24" height="24" rx="5" ry="5" fill="#28CD41" stroke="#E2E2E2" stroke-width="1"/><text x="762" y="599" font-family="-apple-system, BlinkMacSystemFont, 'SF Pro Text', 'Helvetica Neue', Arial, sans-serif" font-size="12" font-weight="600" fill="#737376" text-anchor="start">success</text><rect x="838" y="572" width="108" height="46" rx="8" ry="8" fill="#FFFFFF" stroke="#E2E2E2" stroke-width="1"/><rect x="848" y="582" width="24" height="24" rx="5" ry="5" fill="#FF9500" stroke="#E2E2E2" stroke-width="1"/><text x="880" y="599" font-family="-apple-system, BlinkMacSystemFont, 'SF Pro Text', 'Helvetica Neue', Arial, sans-serif" font-size="12" font-weight="600" fill="#737376" text-anchor="start">warning</text><rect x="956" y="572" width="108" height="46" rx="8" ry="8" fill="#FFFFFF" stroke="#E2E2E2" stroke-width="1"/><rect x="966" y="582" width="24" height="24" rx="5" ry="5" fill="#FF3B30" stroke="#E2E2E2" stroke-width="1"/><text x="998" y="599" font-family="-apple-system, BlinkMacSystemFont, 'SF Pro Text', 'Helvetica Neue', Arial, sans-serif" font-size="12" font-weight="600" fill="#737376" text-anchor="start">danger</text></svg>